<svg xmlns="http://www.w3.org/2000/svg" xmlns:xlink="http://www.w3.org/1999/xlink" version="1.1" id="8326227833"
                x="0px" y="0px" width="100%" height="100%" viewBox="0 0 226.972 226.269" enable-background="new 0 0 226.972 226.269"
                xml:space="preserve" preserveAspectRatio="none" class="element svg-element">
                <path fill="#00CECD" d="M214.414,128.901c0,0-2.305-0.675-4.886,0.084c-1.29,0.374-2.645,1.089-3.805,2.379  c-0.566,0.647-1.182,1.419-1.675,2.381c-0.518,0.955-0.896,2.107-1.33,3.444c0,0,0.744,0.153,1.865,0.226  c1.114,0.069,2.638,0.062,4.124-0.3C211.645,136.416,214.77,134.186,214.414,128.901z"
                    style="fill: rgb(0, 206, 205);"></path>
                <path fill="#9EDFE5" d="M215.09,120.669c0,0-0.08,0.594-0.006,1.49c0.097,0.9,0.262,2.094,0.812,3.328  c0.556,1.235,1.495,2.518,3.066,3.582c1.538,1.055,3.712,1.904,6.818,2.17c0,0,0.001-0.208,0.001-0.573  c0.002-0.362-0.044-0.882-0.133-1.496c-0.174-1.228-0.519-2.833-1.194-4.328c-0.689-1.498-1.794-2.889-3.305-3.71  C219.626,120.304,217.647,120.05,215.09,120.669z"
                    style="fill: rgb(158, 223, 229);"></path>
                <path fill="#307E8F" d="M213.21,139.459c0,0-0.32,0.52-0.621,1.374c-0.315,0.851-0.553,2.053-0.549,3.406  c0.004,1.354,0.351,2.896,1.368,4.511c1.023,1.614,2.623,3.276,5.314,4.876c0,0,0.354-0.76,0.724-1.941  c0.32-1.198,0.633-2.827,0.616-4.505c0.008-1.671-0.479-3.435-1.512-4.83C217.498,140.944,215.809,139.893,213.21,139.459z"
                    style="fill: rgb(48, 126, 143);"></path>
                <path fill="#F5921E" d="M217.768,136.609c-0.087-1.074,0.705-2.031,1.725-2.174c1.028-0.14,1.977,0.635,2.039,1.741  c0.074,1.107-0.712,2.109-1.746,2.211C218.75,138.489,217.849,137.681,217.768,136.609z"
                    style="fill: rgb(245, 146, 30);"></path>
                <path fill="#00CECD" d="M201.816,164.225c0,0-1.91-1.47-4.562-1.684c-1.309-0.102-2.845,0.063-4.429,0.823  c-0.794,0.378-1.577,0.922-2.391,1.636c-0.837,0.698-1.675,1.588-2.502,2.725c0,0,2.532,1.662,5.582,2.08  c1.513,0.199,3.218,0.111,4.7-0.719c0.739-0.415,1.442-1.002,2.069-1.795c0.314-0.396,0.61-0.843,0.877-1.347  C201.407,165.427,201.628,164.855,201.816,164.225z"
                    style="fill: rgb(0, 206, 205);"></path>
                <path fill="#9EDFE5" d="M205.476,156.82c0,0-0.291,0.524-0.571,1.375c-0.277,0.853-0.528,2.04-0.435,3.405  c0.145,2.678,1.524,6.158,7.099,8.938c0,0,0.319-0.783,0.625-1.979c0.152-0.598,0.305-1.296,0.404-2.052  c0.076-0.768,0.104-1.592,0.048-2.419c-0.119-1.658-0.566-3.317-1.691-4.639C209.821,158.119,208.066,157.164,205.476,156.82z"
                    style="fill: rgb(158, 223, 229);"></path>
                <path fill="#307E8F" d="M196.874,173.631c0,0-0.46,0.389-1.055,1.072c-0.604,0.678-1.315,1.67-1.77,2.958  c-0.434,1.308-0.721,2.827-0.362,4.693c0.349,1.855,1.305,4.041,3.225,6.493c0,0,0.156-0.14,0.393-0.416  c0.24-0.273,0.573-0.669,0.945-1.164c0.729-1.002,1.676-2.35,2.223-3.955c0.556-1.598,0.817-3.356,0.357-5.032  C200.348,176.582,199.129,174.971,196.874,173.631z"
                    style="fill: rgb(48, 126, 143);"></path>
                <path fill="#F5921E" d="M202.184,172.649c0.29-1.044,1.336-1.675,2.349-1.43c1.015,0.247,1.598,1.301,1.288,2.375  c-0.293,1.086-1.415,1.716-2.422,1.43C202.392,174.739,201.854,173.666,202.184,172.649z"
                    style="fill: rgb(245, 146, 30);"></path>
                <path fill="#00CECD" d="M177.31,192.619c0,0-1.25-2.056-3.659-3.224c-2.422-1.171-5.819-1.471-10.564,1.48  c0,0,1.767,2.464,4.474,3.97c1.365,0.767,2.942,1.233,4.632,1c0.846-0.112,1.72-0.396,2.599-0.898  C175.644,194.41,176.492,193.644,177.31,192.619z"
                    style="fill: rgb(0, 206, 205);"></path>
                <path fill="#9EDFE5" d="M183.373,187.011c0,0-0.457,0.388-1.003,1.104c-0.554,0.709-1.242,1.695-1.653,2.995  c-0.782,2.608-0.795,6.29,3.416,10.902c0,0,0.586-0.607,1.311-1.599c0.705-1.016,1.515-2.455,2.019-4.02  c0.519-1.552,0.644-3.319,0.072-4.955C186.967,189.797,185.676,188.274,183.373,187.011z"
                    style="fill: rgb(158, 223, 229);"></path>
                <path fill="#307E8F" d="M169.309,199.609c0,0-0.582,0.177-1.373,0.617c-0.78,0.46-1.811,1.108-2.712,2.127  c-1.762,2.087-3.174,5.465-1.365,11.457c0,0,0.768-0.334,1.828-0.976c0.527-0.325,1.137-0.708,1.739-1.196  c0.596-0.498,1.201-1.069,1.754-1.705C171.443,207.425,172.579,203.702,169.309,199.609z"
                    style="fill: rgb(48, 126, 143);"></path>
                <path fill="#F5921E" d="M174.606,200.59c0.654-0.858,1.866-1.058,2.726-0.461c0.86,0.6,1.021,1.785,0.337,2.664  c-0.683,0.88-1.93,1.102-2.76,0.483C174.078,202.657,173.952,201.447,174.606,200.59z"
                    style="fill: rgb(245, 146, 30);"></path>
                <path fill="#00CECD" d="M144.226,210.288c0,0-0.1-0.596-0.434-1.431c-0.333-0.834-0.898-1.902-1.809-2.901  c-1.846-2.005-4.895-3.512-10.376-2.457c0,0,0.193,0.734,0.627,1.773c0.437,1.046,1.11,2.37,2.096,3.538  c0.985,1.171,2.289,2.192,3.956,2.625C139.944,211.86,141.948,211.574,144.226,210.288z"
                    style="fill: rgb(0, 206, 205);"></path>
                <path fill="#9EDFE5" d="M151.901,207.237c0,0-0.569,0.187-1.343,0.644c-0.776,0.452-1.742,1.209-2.614,2.223  c-1.699,2.067-3,5.637-0.758,11.417c0,0,0.193-0.08,0.511-0.266c0.318-0.181,0.765-0.448,1.278-0.795  c1.022-0.702,2.321-1.689,3.352-2.984C154.405,214.819,155.332,211.263,151.901,207.237z"
                    style="fill: rgb(158, 223, 229);"></path>
                <path fill="#307E8F" d="M134.234,213.909c0,0-2.409-0.242-4.804,1.074c-2.415,1.177-4.937,4-5.434,10.156  c0,0,0.209-0.011,0.571-0.03c0.362-0.018,0.876-0.086,1.484-0.21c1.216-0.24,2.814-0.67,4.311-1.42  C133.364,221.854,135.802,218.941,134.234,213.909z"
                    style="fill: rgb(48, 126, 143);"></path>
                <path fill="#F5921E" d="M138.811,216.718c0.465-0.271,0.996-0.338,1.487-0.229c0.486,0.093,0.932,0.36,1.222,0.791  c0.581,0.854,0.31,2.055-0.647,2.625c-0.961,0.553-2.209,0.287-2.76-0.598C137.561,218.423,137.885,217.261,138.811,216.718z"
                    style="fill: rgb(245, 146, 30);"></path>
                <path fill="#00CECD" d="M106.979,214.73c0,0,0.46-2.359-0.534-4.85c-0.492-1.251-1.332-2.506-2.723-3.556  c-0.693-0.552-1.524-1.048-2.527-1.452c-0.502-0.202-1.047-0.382-1.641-0.534c-0.589-0.181-1.224-0.347-1.914-0.477  c0,0-0.355,3.013,0.63,5.96c0.494,1.478,1.35,2.854,2.752,3.845c0.702,0.482,1.536,0.895,2.527,1.081  C104.542,214.923,105.685,214.935,106.979,214.73z"
                    style="fill: rgb(0, 206, 205);"></path>
                <path fill="#9EDFE5" d="M115.239,214.671c0,0-0.6-0.02-1.485,0.145c-0.887,0.134-2.061,0.411-3.24,1.091  c-2.335,1.402-4.824,4.122-4.816,10.362c0,0,0.841-0.052,2.045-0.294c1.205-0.292,2.771-0.798,4.196-1.619  c1.428-0.798,2.711-2.006,3.392-3.609C116.016,219.148,116.089,217.152,115.239,214.671z"
                    style="fill: rgb(158, 223, 229);"></path>
                <path fill="#307E8F" d="M96.356,214.513c0,0-0.548-0.267-1.428-0.48c-0.881-0.218-2.097-0.352-3.44-0.24  c-1.351,0.138-2.855,0.635-4.37,1.806c-1.498,1.116-3.017,2.911-4.357,5.729c0,0,0.791,0.278,2.004,0.53  c1.209,0.261,2.873,0.368,4.541,0.199c1.666-0.153,3.367-0.759,4.666-1.946C95.274,218.923,96.166,217.139,96.356,214.513z"
                    style="fill: rgb(48, 126, 143);"></path>
                <path fill="#F5921E" d="M99.613,218.796c1.062-0.188,2.091,0.486,2.324,1.509c0.232,1.024-0.446,2.006-1.544,2.189  c-1.097,0.184-2.168-0.497-2.364-1.516C97.832,219.96,98.553,218.983,99.613,218.796z"
                    style="fill: rgb(245, 146, 30);"></path>
                <path fill="#00CECD" d="M70.636,205.482c0,0,1.288-2.04,1.254-4.695c-0.023-1.307-0.312-2.855-1.225-4.34  c-0.447-0.762-1.076-1.46-1.845-2.235c-0.774-0.766-1.74-1.513-2.95-2.225c0,0-1.422,2.674-1.555,5.743  c-0.062,1.529,0.199,3.19,1.146,4.62c0.483,0.694,1.134,1.337,1.983,1.885C68.294,204.782,69.334,205.25,70.636,205.482z"
                    style="fill: rgb(0, 206, 205);"></path>
                <path fill="#9EDFE5" d="M78.349,208.436c0,0-2.157-1.001-4.857-0.547c-2.64,0.358-5.994,2.094-8.241,7.891  c0,0,0.812,0.241,2.032,0.432c1.22,0.192,2.843,0.34,4.492,0.041c1.641-0.272,3.26-0.894,4.464-2.118  C77.453,212.899,78.242,211.062,78.349,208.436z"
                    style="fill: rgb(158, 223, 229);"></path>
                <path fill="#307E8F" d="M60.812,201.432c0,0-0.434-0.415-1.157-0.963c-0.732-0.536-1.788-1.149-3.115-1.48  c-1.337-0.317-2.873-0.469-4.704,0.067c-1.818,0.521-3.912,1.681-6.165,3.801c0,0,0.161,0.133,0.441,0.364  c0.292,0.215,0.721,0.507,1.249,0.831c1.063,0.638,2.51,1.431,4.141,1.854c1.646,0.401,3.425,0.496,5.054-0.119  C58.183,205.18,59.69,203.793,60.812,201.432z"
                    style="fill: rgb(48, 126, 143);"></path>
                <path fill="#F5921E" d="M62.287,206.615c1.049,0.225,1.79,1.178,1.636,2.216c-0.152,1.032-1.148,1.712-2.249,1.506  c-1.111-0.184-1.825-1.276-1.642-2.289C60.222,207.02,61.242,206.384,62.287,206.615z"
                    style="fill: rgb(245, 146, 30);"></path>
                <path fill="#00CECD" d="M40.112,183.686c0,0,1.934-1.433,2.872-3.936c0.489-1.264,0.671-2.717,0.401-4.474  c-0.292-1.743-1.178-3.65-2.848-5.911c0,0-2.291,1.985-3.536,4.816c-0.311,0.708-0.554,1.472-0.678,2.272  c-0.113,0.79-0.087,1.603,0.103,2.435c0.192,0.83,0.559,1.673,1.142,2.5C38.156,182.211,39.021,182.965,40.112,183.686z"
                    style="fill: rgb(0, 206, 205);"></path>
                <path fill="#9EDFE5" d="M46.249,189.215c0,0-0.43-0.417-1.193-0.895c-0.737-0.508-1.802-1.083-3.132-1.376  c-0.665-0.146-1.398-0.222-2.189-0.186c-0.774,0.02-1.609,0.154-2.497,0.45c-1.774,0.594-3.771,1.822-5.855,4.136  c0,0,0.66,0.525,1.717,1.154c1.054,0.631,2.582,1.283,4.186,1.644c0.807,0.175,1.636,0.273,2.469,0.229  c0.844-0.058,1.678-0.245,2.468-0.605C43.807,193.046,45.205,191.621,46.249,189.215z"
                    style="fill: rgb(158, 223, 229);"></path>
                <path fill="#307E8F" d="M32.415,176.363c0,0-0.943-2.201-3.108-3.814c-2.252-1.554-5.721-2.665-11.539-0.298  c0,0,0.406,0.731,1.146,1.726c0.37,0.496,0.823,1.058,1.349,1.622c0.538,0.557,1.177,1.098,1.859,1.589  C24.842,179.2,28.627,180.006,32.415,176.363z"
                    style="fill: rgb(48, 126, 143);"></path>
                <path fill="#F5921E" d="M31.923,181.732c0.917,0.57,1.23,1.756,0.715,2.667c-0.517,0.91-1.684,1.181-2.625,0.583  c-0.939-0.599-1.283-1.812-0.737-2.701C29.823,181.39,30.998,181.168,31.923,181.732z"
                    style="fill: rgb(245, 146, 30);"></path>
                <path fill="#00CECD" d="M19.461,152.376c0,0,2.314-0.638,4.112-2.641c0.901-0.996,1.681-2.317,1.99-4.023  c0.137-0.848,0.259-1.829,0.172-2.905c-0.061-1.085-0.345-2.264-0.678-3.629c0,0-0.714,0.26-1.705,0.788  c-0.984,0.526-2.277,1.333-3.351,2.423C17.867,144.527,16.389,148.066,19.461,152.376z"
                    style="fill: rgb(0, 206, 205);"></path>
                <path fill="#9EDFE5" d="M23.215,159.733c0,0-0.241-0.549-0.773-1.274c-0.266-0.362-0.603-0.77-1.02-1.179  c-0.397-0.418-0.866-0.841-1.427-1.221c-1.118-0.761-2.59-1.358-4.483-1.439c-1.879-0.082-4.162,0.333-6.948,1.742  c0,0,0.399,0.74,1.205,1.689c0.792,0.955,1.926,2.142,3.283,3.061C15.889,162.933,19.534,163.518,23.215,159.733z"
                    style="fill: rgb(158, 223, 229);"></path>
                <path fill="#307E8F" d="M14.94,142.761c0,0-0.002-0.61-0.194-1.495c-0.18-0.891-0.609-2.037-1.323-3.188  c-0.715-1.15-1.82-2.279-3.534-3.118c-1.725-0.834-3.953-1.408-7.084-1.355c0,0,0.095,0.833,0.403,2.032  c0.36,1.188,0.947,2.737,1.844,4.156c0.871,1.425,2.213,2.67,3.824,3.314C10.511,143.751,12.501,143.758,14.94,142.761z"
                    style="fill: rgb(48, 126, 143);"></path>
                <path fill="#F5921E" d="M12.56,147.58c0.639,0.868,0.465,2.101-0.323,2.755c-0.799,0.659-2.019,0.501-2.651-0.408  c-0.647-0.903-0.504-2.169,0.323-2.799C10.736,146.497,11.927,146.711,12.56,147.58z"
                    style="fill: rgb(245, 146, 30);"></path>
                <path fill="#00CECD" d="M11.612,115.702c0-0.001,2.395,0.244,4.771-0.974c1.203-0.604,2.329-1.555,3.313-3.037  c0.966-1.485,1.575-3.496,1.878-6.291c0,0-3.031-0.074-5.862,1.179c-0.707,0.315-1.406,0.715-2.034,1.224  c-0.604,0.509-1.141,1.127-1.558,1.87C11.282,111.155,10.9,113.158,11.612,115.702z"
                    style="fill: rgb(0, 206, 205);"></path>
                <path fill="#9EDFE5" d="M12.4,123.924c0,0-0.056-0.596-0.25-1.469c-0.208-0.871-0.614-2.013-1.407-3.126  c-0.817-1.11-1.906-2.203-3.627-2.964c-1.714-0.757-4.019-1.195-7.116-0.891c0,0,0.136,0.832,0.497,2.008  c0.331,1.176,1.024,2.688,1.978,4.034C4.358,124.25,7.641,126.107,12.4,123.924z"
                    style="fill: rgb(158, 223, 229);"></path>
                <path fill="#307E8F" d="M10.855,105.104c0,0,0.209-0.57,0.334-1.467c0.102-0.9,0.2-2.115-0.064-3.446  c-0.256-1.331-0.954-2.793-2.194-4.182c-1.258-1.39-3.193-2.736-6.126-3.81c0,0-0.198,0.814-0.329,2.046  c-0.159,1.227-0.133,2.889,0.216,4.536c0.341,1.647,1.024,3.277,2.36,4.463C6.36,104.433,8.225,105.155,10.855,105.104z"
                    style="fill: rgb(48, 126, 143);"></path>
                <path fill="#F5921E" d="M6.877,108.739c0.294,1.039-0.274,2.126-1.268,2.451c-0.995,0.325-2.04-0.262-2.333-1.337  c-0.294-1.074,0.276-2.202,1.27-2.491C5.542,107.072,6.582,107.7,6.877,108.739z"
                    style="fill: rgb(245, 146, 30);"></path>
                <path fill="#00CECD" d="M17.448,78.653c0,0,2.151,1.093,4.786,0.811c2.732-0.258,5.765-1.785,8.216-6.802  c0,0-0.704-0.29-1.792-0.567c-1.08-0.273-2.542-0.532-4.074-0.452c-1.531,0.079-3.137,0.503-4.493,1.569  C18.808,74.303,17.74,76.04,17.448,78.653z"
                    style="fill: rgb(0, 206, 205);"></path>
                <path fill="#9EDFE5" d="M15.242,86.612c0,0,0.197-0.566,0.303-1.457c0.118-0.889,0.095-2.117-0.21-3.429  c-0.612-2.598-2.664-5.781-8.642-7.479c0,0-0.161,0.831-0.232,2.067c-0.049,1.241-0.094,2.855,0.37,4.475  C7.686,84.044,9.953,86.923,15.242,86.612z"
                    style="fill: rgb(158, 223, 229);"></path>
                <path fill="#307E8F" d="M20.569,68.494c0,0,0.093-0.12,0.252-0.328c0.162-0.209,0.382-0.517,0.613-0.906  c0.463-0.781,0.971-1.891,1.173-3.245c0.225-1.344,0.203-2.903-0.496-4.677c-0.705-1.773-2.02-3.731-4.344-5.783  c0-0.001-0.518,0.662-1.045,1.787c-0.542,1.115-1.167,2.647-1.468,4.294C14.757,63.018,15.585,66.703,20.569,68.494z"
                    style="fill: rgb(48, 126, 143);"></path>
                <path fill="#F5921E" d="M15.561,70.451c-0.15,1.056-1.02,1.886-2.067,1.829c-1.039-0.055-1.81-0.984-1.713-2.102  c0.119-1.107,1.105-1.935,2.139-1.843C14.959,68.429,15.689,69.387,15.561,70.451z"
                    style="fill: rgb(245, 146, 30);"></path>
                <path fill="#00CECD" d="M36.342,46.255c0,0,1.605,1.794,4.181,2.496c1.29,0.359,2.778,0.431,4.496-0.007  c0.851-0.227,1.739-0.6,2.656-1.166c0.926-0.56,1.942-1.252,2.964-2.217c0,0-2.187-2.099-5.116-3.074  c-1.462-0.483-3.146-0.702-4.744-0.145C39.17,42.681,37.529,43.896,36.342,46.255z"
                    style="fill: rgb(0, 206, 205);"></path>
                <path fill="#9EDFE5" d="M31.396,52.87c0,0,0.359-0.479,0.791-1.264c0.436-0.782,0.907-1.897,1.073-3.252  c0.148-1.368,0.065-2.921-0.688-4.638c-0.757-1.714-2.164-3.591-4.659-5.452c0.001,0-1.887,2.816-2.242,6.136  c-0.207,1.636-0.059,3.357,0.824,4.878C27.358,50.791,28.906,52.053,31.396,52.87z"
                    style="fill: rgb(158, 223, 229);"></path>
                <path fill="#307E8F" d="M42.926,37.916c0,0,0.536-0.283,1.229-0.865c0.696-0.58,1.602-1.397,2.284-2.58  c0.346-0.589,0.642-1.263,0.848-2.03c0.226-0.743,0.36-1.582,0.36-2.525c-0.001-1.884-0.529-4.192-1.977-6.966  c0,0-0.689,0.475-1.607,1.307c-0.916,0.832-2.078,2.002-2.903,3.486c-0.838,1.47-1.448,3.115-1.271,4.881  C40.058,34.388,40.949,36.182,42.926,37.916z"
                    style="fill: rgb(48, 126, 143);"></path>
                <path fill="#F5921E" d="M37.532,37.915c-0.481,0.969-1.631,1.392-2.583,0.964c-0.954-0.431-1.331-1.569-0.825-2.564  c0.508-0.992,1.677-1.454,2.629-0.975C37.699,35.812,38.003,36.938,37.532,37.915z"
                    style="fill: rgb(245, 146, 30);"></path>
                <path fill="#00CECD" d="M65.623,22.813c0,0,0.85,2.247,3.008,3.847c1.075,0.802,2.46,1.451,4.185,1.594  c0.877,0.1,1.848,0.092,2.914-0.091c0.533-0.09,1.092-0.222,1.677-0.402c0.589-0.172,1.222-0.352,1.876-0.605  c0.001,0-1.282-2.75-3.67-4.741c-1.189-0.981-2.648-1.717-4.361-1.822C69.527,20.453,67.617,21.114,65.623,22.813z"
                    style="fill: rgb(0, 206, 205);"></path>
                <path fill="#9EDFE5" d="M58.641,27.226c0,0,0.522-0.293,1.193-0.892c0.661-0.618,1.517-1.465,2.168-2.652  c0.652-1.185,1.101-2.724,1.015-4.6c-0.083-1.861-0.717-4.113-2.375-6.751c0,0-0.166,0.125-0.458,0.346  c-0.285,0.226-0.687,0.55-1.119,0.998c-0.874,0.88-1.947,2.124-2.732,3.566c-0.784,1.449-1.228,3.171-0.974,4.871  C55.615,23.826,56.604,25.558,58.641,27.226z"
                    style="fill: rgb(158, 223, 229);"></path>
                <path fill="#307E8F" d="M74.775,17.418c0,0,0.607-0.061,1.468-0.34c0.865-0.273,1.969-0.803,3.053-1.604  c1.076-0.826,2.096-2.04,2.77-3.831c0.688-1.737,1.036-4.062,0.695-7.164c0,0-0.819,0.179-1.983,0.602  c-1.165,0.415-2.638,1.197-3.968,2.217c-1.337,1.006-2.465,2.419-2.947,4.109C73.377,13.099,73.557,15.084,74.775,17.418z"
                    style="fill: rgb(48, 126, 143);"></path>
                <path fill="#F5921E" d="M69.753,15.489c-0.806,0.716-2.037,0.681-2.774-0.066c-0.736-0.75-0.674-1.941,0.164-2.672  c0.837-0.731,2.108-0.713,2.812,0.051C70.658,13.566,70.558,14.774,69.753,15.489z"
                    style="fill: rgb(245, 146, 30);"></path>
                <path fill="#00CECD" d="M101.404,11.588c0.001,0-0.022,2.411,1.404,4.654c0.706,1.103,1.765,2.237,3.326,3.043  c0.78,0.402,1.688,0.714,2.747,0.914c1.063,0.251,2.28,0.388,3.688,0.368c0,0-0.202-3.023-1.708-5.714  C109.386,12.149,106.39,9.804,101.404,11.588z"
                    style="fill: rgb(0, 206, 205);"></path>
                <path fill="#9EDFE5" d="M93.29,13.125c0,0,2.361-0.279,4.42-2.082c2.055-1.705,3.997-4.926,2.858-11.043  c0,0-0.816,0.219-1.954,0.696c-0.569,0.238-1.218,0.542-1.881,0.914c-0.663,0.381-1.334,0.873-1.961,1.414  c-1.252,1.093-2.303,2.47-2.684,4.144C91.706,8.86,92,10.838,93.29,13.125z"
                    style="fill: rgb(158, 223, 229);"></path>
                <path fill="#307E8F" d="M111.89,9.87c0,0,0.588,0.151,1.491,0.185c0.905,0.057,2.125,0.05,3.427-0.36  c0.651-0.202,1.324-0.5,1.993-0.929c0.668-0.413,1.332-0.929,1.967-1.627c1.269-1.391,2.432-3.45,3.229-6.474  c0,0-0.828-0.115-2.066-0.122c-1.237-0.013-2.884,0.082-4.492,0.622c-1.607,0.518-3.167,1.335-4.226,2.743  C112.149,5.33,111.599,7.258,111.89,9.87z"
                    style="fill: rgb(48, 126, 143);"></path>
                <path fill="#F5921E" d="M107.907,6.223c-1.009,0.397-2.142-0.059-2.557-1.016c-0.414-0.958,0.075-2.058,1.119-2.457  c1.043-0.419,2.219,0.079,2.599,1.066C109.448,4.796,108.915,5.856,107.907,6.223z"
                    style="fill: rgb(245, 146, 30);"></path>
                <path fill="#00CECD" d="M138.841,13.987c0,0-0.229,0.56-0.383,1.445c-0.156,0.884-0.236,2.09,0.015,3.419  c0.516,2.677,2.318,5.559,7.534,7.545c0,0,0.222-0.727,0.398-1.838c0.178-1.117,0.303-2.604,0.077-4.113  c-0.222-1.514-0.794-3.067-1.985-4.311C143.31,14.9,141.454,14.09,138.841,13.987z"
                    style="fill: rgb(0, 206, 205);"></path>
                <path fill="#9EDFE5" d="M130.706,12.551c0,0,0.583,0.14,1.481,0.156c0.898,0.019,2.117-0.111,3.392-0.516  c2.533-0.867,5.516-3.22,6.646-9.315c0,0-0.207-0.034-0.574-0.043c-0.365-0.014-0.887-0.02-1.505,0.005  c-1.239,0.059-2.863,0.22-4.42,0.775C132.563,4.784,129.904,7.324,130.706,12.551z"
                    style="fill: rgb(158, 223, 229);"></path>
                <path fill="#307E8F" d="M149.243,16.159c0,0,1.925,1.467,4.651,1.61c2.68,0.256,6.297-0.796,9.964-5.775  c0,0-0.184-0.101-0.504-0.273c-0.324-0.162-0.781-0.408-1.367-0.615c-1.163-0.433-2.751-0.904-4.42-1.05  C154.164,9.848,150.553,11.059,149.243,16.159z"
                    style="fill: rgb(48, 126, 143);"></path>
                <path fill="#F5921E" d="M146.827,11.363c-0.538-0.013-1.025-0.235-1.386-0.587c-0.365-0.335-0.604-0.796-0.624-1.315  c-0.045-1.032,0.816-1.91,1.931-1.893c1.108,0.034,2.031,0.917,2.034,1.958C148.787,10.568,147.899,11.388,146.827,11.363z"
                    style="fill: rgb(245, 146, 30);"></path>
                <path fill="#00CECD" d="M172.842,29.812c0.001,0-1.639,1.765-2.1,4.391c-0.228,1.302-0.183,2.817,0.416,4.481  c0.306,0.823,0.761,1.671,1.411,2.529c0.623,0.895,1.425,1.819,2.478,2.751c0,0,1.889-2.37,2.589-5.372  c0.335-1.486,0.419-3.21-0.288-4.742C176.65,32.314,175.308,30.768,172.842,29.812z"
                    style="fill: rgb(0, 206, 205);"></path>
                <path fill="#9EDFE5" d="M165.804,25.491c0,0,0.511,0.312,1.324,0.683c0.821,0.358,1.978,0.722,3.343,0.759  c1.381,0.015,2.9-0.182,4.552-1.105c1.639-0.913,3.38-2.488,5.004-5.143c0,0-0.748-0.392-1.908-0.81  c-1.143-0.44-2.755-0.816-4.411-0.858C170.389,18.874,166.928,20.377,165.804,25.491z"
                    style="fill: rgb(158, 223, 229);"></path>
                <path fill="#307E8F" d="M181.753,35.602c0,0,0.332,0.507,0.978,1.141c0.62,0.663,1.537,1.468,2.775,2.042  c1.256,0.558,2.766,0.959,4.644,0.787c1.879-0.177,4.131-0.917,6.761-2.614c0,0-0.537-0.641-1.452-1.476  c-0.928-0.821-2.176-1.894-3.736-2.573c-1.538-0.701-3.253-1.136-4.975-0.821C185.003,32.421,183.297,33.475,181.753,35.602z"
                    style="fill: rgb(48, 126, 143);"></path>
                <path fill="#F5921E" d="M181.261,30.228c-1.012-0.388-1.54-1.49-1.202-2.478c0.341-0.988,1.441-1.471,2.48-1.06  c1.047,0.4,1.593,1.548,1.206,2.535C183.363,30.208,182.263,30.624,181.261,30.228z"
                    style="fill: rgb(245, 146, 30);"></path>
                <path fill="#00CECD" d="M198.87,56.82c0,0-2.16,1.055-3.549,3.349c-0.704,1.146-1.196,2.571-1.203,4.316  c-0.021,0.885,0.085,1.846,0.368,2.89c0.138,0.523,0.338,1.059,0.554,1.634c0.208,0.581,0.465,1.185,0.776,1.814  c0,0.001,2.618-1.531,4.373-4.09c0.897-1.293,1.473-2.802,1.418-4.516c-0.038-0.851-0.217-1.762-0.66-2.668  C200.49,58.65,199.812,57.73,198.87,56.82z"
                    style="fill: rgb(0, 206, 205);"></path>
                <path fill="#9EDFE5" d="M193.839,50.271c-0.001,0,1.384,1.929,3.838,3.021c2.516,1.025,6.206,1.36,11.174-2.401  c0,0-0.542-0.646-1.474-1.452c-0.96-0.786-2.302-1.736-3.814-2.383c-1.491-0.664-3.268-0.931-4.934-0.523  C196.944,46.946,195.31,48.092,193.839,50.271z"
                    style="fill: rgb(158, 223, 229);"></path>
                <path fill="#307E8F" d="M205.091,65.434c0,0,0.12,0.596,0.481,1.426c0.182,0.415,0.423,0.889,0.742,1.379  c0.3,0.499,0.665,1.021,1.132,1.516c0.918,0.997,2.263,1.881,4.064,2.403c1.799,0.521,4.152,0.65,7.211,0.021  c0,0-0.258-0.798-0.793-1.915c-0.507-1.128-1.418-2.522-2.57-3.746c-0.579-0.61-1.227-1.174-1.942-1.626  c-0.743-0.438-1.551-0.768-2.417-0.928C209.265,63.639,207.302,64.004,205.091,65.434z"
                    style="fill: rgb(48, 126, 143);"></path>
                <path fill="#F5921E" d="M206.552,60.251c-0.791-0.733-0.874-1.961-0.199-2.763c0.677-0.803,1.87-0.852,2.68-0.087  c0.81,0.764,0.912,2.028,0.219,2.798C208.557,60.971,207.342,60.983,206.552,60.251z"
                    style="fill: rgb(245, 146, 30);"></path>
                <path fill="#00CECD" d="M213.383,91.401c0,0-2.405,0.201-4.498,1.826c-1.07,0.812-2.099,1.971-2.737,3.594  c-0.594,1.62-0.997,3.728-0.67,6.516c0,0,2.99-0.476,5.518-2.22c1.263-0.873,2.409-2.078,3.005-3.699  C214.501,95.818,214.517,93.775,213.383,91.401z"
                    style="fill: rgb(0, 206, 205);"></path>
                <path fill="#9EDFE5" d="M211.077,83.47c0,0,0.13,0.586,0.508,1.399c0.367,0.817,1.032,1.851,1.982,2.807  c1.886,1.889,5.303,3.519,11.281,1.82c0,0-0.299-0.792-0.889-1.88c-0.609-1.082-1.42-2.479-2.665-3.613  C218.856,81.684,215.414,80.426,211.077,83.47z"
                    style="fill: rgb(158, 223, 229);"></path>
                <path fill="#307E8F" d="M216.062,101.685c0,0-0.072,0.596-0.073,1.503c0.012,0.908,0.158,2.12,0.692,3.379  c1.043,2.509,3.455,5.282,9.655,6.336c0,0,0.032-0.835-0.085-2.067c-0.133-1.23-0.351-2.862-1.015-4.417  c-0.67-1.554-1.665-3.03-3.138-3.959C220.644,101.523,218.62,101.157,216.062,101.685z"
                    style="fill: rgb(48, 126, 143);"></path>
                <path fill="#7F6653" d="M184.681,177.885c0.471,1.964,0.618,3.84,0.353,5.679c-0.279,1.824-1.045,3.54-2.28,5.284  c-0.919,1.183-1.977,2.248-3.077,3.271c-0.196,0.178-0.409,0.338-0.611,0.51c-0.431,1.189-1.392,2.17-1.748,3.482  c-0.411,1.572-0.672,3.129-0.861,4.733c-0.061,0.498-0.799,0.514-0.868,0.039c-0.268-1.764-0.133-3.51,0.477-5.192  c0.101-0.287,0.212-0.6,0.333-0.917c-0.075,0.06-0.152,0.118-0.227,0.178c-2.401,1.81-4.768,3.608-6.777,5.908  c-0.644,0.753-1.789-0.208-1.158-0.953c3.224-3.669,7.385-6.242,10.714-9.423c0.812-0.81,1.573-1.644,2.244-2.522  c0.664-0.886,1.188-1.869,1.609-2.884c0.854-2.017,1.061-4.399,0.422-7.111C183.001,177.052,184.463,176.986,184.681,177.885z   M86.381,204.247c-0.538,0.455-1.081,0.854-1.626,1.195c-0.54,0.322-1.083,0.592-1.629,0.812c-1.091,0.442-2.192,0.693-3.299,0.8  c-1.111,0.119-2.188-0.014-3.285-0.189c-1.087-0.204-2.202-0.443-3.265-0.865c-4.363-1.507-8.436-4.237-13.211-5.396  c-0.931-0.26-1.296,1.215-0.343,1.468c1.502,0.349,2.903,0.873,4.258,1.498c1.369,0.598,2.726,1.235,4.06,1.928  c0.092,0.044,0.185,0.089,0.277,0.133c-0.344,0.029-0.678,0.062-0.98,0.087c-1.768,0.183-3.419,0.889-4.882,1.914  c-0.397,0.276-0.05,0.921,0.427,0.75c1.528-0.557,3.061-1.06,4.626-1.336c1.295-0.22,2.614,0.131,3.858-0.003  c1.638,0.705,3.317,1.303,5.079,1.611c2.073,0.433,3.995,0.229,5.741-0.304c1.743-0.517,3.37-1.534,4.924-2.857  C87.82,204.883,87.103,203.629,86.381,204.247z M55.247,188.23c-1.325,0.447-2.58,0.668-3.776,0.707  c-1.193,0.037-2.281-0.164-3.346-0.473c-2.146-0.599-3.974-1.874-5.741-3.336c-3.464-3.033-6.41-6.936-10.366-9.806  c-0.803-0.557-1.653,0.672-0.841,1.241c2.48,1.785,4.485,3.976,6.504,6.207c0.067,0.07,0.133,0.14,0.2,0.21  c-0.328-0.091-0.651-0.172-0.948-0.246c-1.709-0.473-3.482-0.426-5.21-0.001c-0.467,0.113-0.382,0.845,0.12,0.859  c1.628,0.03,3.183,0.164,4.788,0.427c1.335,0.232,2.407,1.085,3.621,1.412c0.191,0.19,0.375,0.388,0.569,0.574  c1.121,0.999,2.288,1.945,3.546,2.756c1.835,1.088,3.646,1.656,5.466,1.794c1.858,0.092,3.716-0.231,5.631-0.883  C56.34,189.37,56.138,187.924,55.247,188.23z M121.228,207.882c-0.679,1.225-1.458,2.235-2.315,3.073  c-0.858,0.816-1.798,1.411-2.792,1.896c-0.995,0.466-2.046,0.857-3.134,1.047c-1.088,0.197-2.212,0.301-3.358,0.353  c-1.148,0.078-2.311-0.002-3.486-0.066c-1.175-0.08-2.367-0.108-3.556-0.212c-2.379-0.202-4.787-0.225-7.223,0.026  c-0.967,0.119-0.767,1.604,0.214,1.489c0.761-0.092,1.513-0.132,2.261-0.135c0.753-0.039,1.502-0.039,2.249-0.011  c1.494,0.048,2.978,0.256,4.479,0.336c0.096,0.006,0.193,0.015,0.289,0.022c-0.303,0.152-0.596,0.308-0.865,0.452  c-1.588,0.876-2.858,2.033-3.85,3.524c-0.268,0.396,0.288,0.885,0.668,0.56c0.609-0.523,1.226-1.035,1.857-1.515  c0.635-0.502,1.287-0.984,1.967-1.412c1.138-0.725,2.497-0.792,3.612-1.376c0.274,0.009,0.547,0.019,0.821,0.017  c1.502-0.012,3.002-0.095,4.477-0.339c2.088-0.445,3.81-1.244,5.248-2.356c1.436-1.19,2.591-2.683,3.567-4.458  C122.803,207.983,121.68,207.054,121.228,207.882z M155.029,198.765c-0.389,2.741-1.458,4.851-2.958,6.476  c-1.529,1.557-3.426,2.785-5.555,3.623c-4.229,1.852-9.082,2.574-13.397,4.909c-0.86,0.445-0.141,1.767,0.736,1.318  c2.693-1.476,5.572-2.2,8.453-3.071c0.094-0.027,0.189-0.053,0.284-0.08c-0.231,0.248-0.451,0.495-0.653,0.721  c-1.181,1.339-1.916,3.005-2.318,4.697c-0.109,0.464,0.587,0.729,0.827,0.293c0.756-1.436,1.544-2.863,2.511-4.131  c0.453-0.599,1.044-1.025,1.621-1.461c0.448-0.36,0.887-0.719,1.25-1.143c0.257-0.092,0.516-0.178,0.771-0.274  c1.408-0.521,2.786-1.113,4.048-1.943c0.899-0.568,1.682-1.187,2.357-1.852c0.669-0.683,1.215-1.452,1.678-2.245  c0.918-1.603,1.479-3.358,1.718-5.42C156.514,198.249,155.144,197.816,155.029,198.765z M63.63,24.629  c0.476-0.32,0.962-0.633,1.456-0.941c0.501-0.295,1.021-0.565,1.538-0.847c1.037-0.56,2.084-1.125,3.135-1.692  c2.135-1.065,4.19-2.323,6.132-3.814c0.76-0.608-0.19-1.768-0.965-1.154c-0.598,0.48-1.222,0.896-1.85,1.31  c-0.621,0.427-1.259,0.818-1.91,1.185c-1.306,0.727-2.66,1.362-3.985,2.073c-0.085,0.042-0.169,0.087-0.253,0.13  c0.178-0.286,0.345-0.57,0.496-0.834c0.892-1.575,1.352-3.253,1.417-5.027c0.021-0.478-0.71-0.602-0.863-0.128  c-0.497,1.512-1.006,3.062-1.711,4.507c-0.59,1.23-1.741,1.978-2.363,3.102c-1.529,0.885-3,1.862-4.309,3.047  c-3.133,2.888-4.124,6.375-3.907,10.413c0.064,0.942,1.479,1.1,1.441,0.179C56.867,30.564,59.795,27.11,63.63,24.629z   M18.924,130.467c0.856,0.366,1.67-0.836,0.799-1.208c-5.192-2.246-6.798-6.431-7.421-10.961c-0.127-1.138-0.175-2.303-0.231-3.479  c-0.026-0.589-0.053-1.181-0.08-1.774l-0.017-1.786c-0.021-1.193-0.076-2.392-0.21-3.592c-0.074-1.196-0.226-2.396-0.498-3.6  c-0.216-0.952-1.673-0.616-1.459,0.351c0.614,2.989,0.652,5.961,0.618,8.969c0.002,0.096,0.005,0.193,0.007,0.289  c-0.182-0.288-0.366-0.565-0.534-0.819c-0.932-1.501-2.284-2.661-3.844-3.511c-0.421-0.23-0.852,0.367-0.49,0.716  c1.181,1.118,2.249,2.265,3.245,3.54c0.83,1.067,1.053,2.415,1.728,3.473c0.012,0.273,0.017,0.546,0.033,0.818  c0.132,1.495,0.389,2.979,0.773,4.426C12.542,126.407,15.157,128.864,18.924,130.467z M33.21,61.741  c-0.57-1.279-0.908-2.511-1.061-3.699c-0.119-1.167-0.044-2.286,0.169-3.371c0.39-2.199,1.517-4.118,2.79-6.027  c2.703-3.729,6.34-6.998,8.815-11.222c0.478-0.854-0.821-1.586-1.312-0.723c-0.745,1.35-1.68,2.506-2.611,3.678  c-0.928,1.175-1.96,2.259-2.976,3.366c-0.062,0.072-0.125,0.144-0.188,0.217c0.06-0.333,0.113-0.66,0.162-0.958  c0.319-1.74,0.101-3.511-0.481-5.192c-0.156-0.455-0.876-0.302-0.843,0.2c0.116,1.621,0.146,3.201,0.011,4.804  c-0.106,1.348-0.85,2.495-1.063,3.732c-0.175,0.209-0.355,0.415-0.527,0.627c-0.898,1.203-1.722,2.461-2.412,3.789  c-0.94,1.907-1.303,3.79-1.289,5.603c0.069,1.852,0.577,3.683,1.403,5.528C32.181,62.937,33.599,62.601,33.21,61.741z   M31.941,162.063c-5.564-0.257-8.729-3.493-10.849-7.539c-1.138-1.998-1.917-4.246-2.897-6.425c-0.454-1.104-0.9-2.213-1.443-3.289  c-0.267-0.539-0.562-1.069-0.862-1.597c-0.282-0.533-0.589-1.058-0.924-1.573c-0.53-0.814-1.775,0.024-1.241,0.854  c0.797,1.294,1.544,2.604,2.138,3.974c0.305,0.683,0.569,1.381,0.846,2.076c0.295,0.69,0.575,1.385,0.852,2.084  c0.034,0.088,0.069,0.177,0.103,0.265c-0.266-0.204-0.532-0.397-0.78-0.572c-0.726-0.524-1.523-0.93-2.349-1.236  c-0.807-0.313-1.659-0.522-2.533-0.64c-0.474-0.064-0.668,0.652-0.211,0.85c1.448,0.638,2.99,1.273,4.336,2.119  c1.137,0.703,1.799,1.89,2.841,2.617c0.117,0.249,0.233,0.499,0.36,0.743c0.676,1.341,1.354,2.677,2.309,3.851  c1.31,1.681,2.743,2.89,4.456,3.638c1.696,0.756,3.481,1.162,5.553,1.211C32.592,163.495,32.872,162.103,31.941,162.063z   M15.614,75.689c0.331,1.275,0.094,2.626,0.359,3.862c-0.082,0.26-0.17,0.52-0.251,0.78c-0.212,0.721-0.428,1.438-0.575,2.173  c-0.136,0.738-0.242,1.482-0.309,2.229c-0.087,1.06-0.092,2.051,0.057,2.997c0.163,0.95,0.426,1.845,0.782,2.692  c0.356,0.848,0.807,1.648,1.344,2.415c0.552,0.768,1.222,1.509,1.952,2.221c0.676,0.65,1.851-0.182,1.164-0.844  c-2.002-1.972-2.965-4.078-3.407-6.267c-0.169-1.081-0.185-2.178-0.105-3.285c0.072-1.11,0.256-2.228,0.567-3.329  c0.289-1.107,0.634-2.222,0.988-3.346c0.409-1.104,0.832-2.216,1.223-3.345c0.368-1.138,0.79-2.257,1.135-3.408  c0.356-1.147,0.577-2.353,0.803-3.553c0.166-0.955-1.324-1.177-1.498-0.208c-0.229,1.519-0.596,2.974-1.093,4.381  c-0.505,1.402-0.976,2.828-1.544,4.219c-0.039,0.093-0.069,0.19-0.107,0.284c-0.057-0.335-0.119-0.666-0.181-0.963  c-0.347-1.745-1.227-3.333-2.36-4.685c-0.303-0.365-0.942,0.027-0.717,0.49C14.54,72.673,15.188,74.156,15.614,75.689z   M216.748,131.472c-0.606-1.197-0.532-2.553-1.039-3.72c0.031-0.273,0.064-0.546,0.084-0.82c0.118-1.497,0.257-2.989,0.066-4.489  c-0.264-2.12-0.802-3.9-1.873-5.439c-1.038-1.537-2.407-2.824-4.074-3.959c-0.765-0.517-1.805,0.518-1.026,1.044  c1.149,0.787,2.076,1.655,2.823,2.586c0.765,0.931,1.296,1.921,1.66,2.953c0.377,1.033,0.614,2.11,0.756,3.216  c0.127,1.104,0.087,2.229,0.032,3.373c-0.072,2.3-0.61,4.619-0.909,6.989c-0.2,1.177-0.398,2.356-0.503,3.557  c-0.057,0.6-0.084,1.205-0.105,1.812c-0.039,0.603-0.055,1.21-0.041,1.824c0.023,0.972,1.523,0.912,1.506-0.074  c0.002-1.52,0.055-3.027,0.269-4.505c0.101-0.74,0.237-1.475,0.375-2.21c0.109-0.741,0.236-1.48,0.368-2.221  c0.016-0.092,0.034-0.184,0.05-0.277c0.119,0.312,0.244,0.615,0.364,0.894c0.342,0.827,0.812,1.591,1.348,2.285  c0.521,0.69,1.137,1.317,1.819,1.876c0.368,0.304,0.911-0.203,0.625-0.611C218.426,134.25,217.451,132.9,216.748,131.472z   M205.283,66.533c0.68,0.698,1.744-0.354,1.058-1.067c-0.533-0.551-1.022-1.125-1.476-1.72c-0.462-0.59-0.932-1.178-1.354-1.793  c-0.866-1.22-1.592-2.529-2.432-3.777c-0.05-0.081-0.104-0.161-0.154-0.242c0.303,0.15,0.602,0.29,0.879,0.416  c1.648,0.745,3.347,1.057,5.132,0.95c0.479-0.025,0.533-0.763,0.044-0.87c-0.786-0.171-1.565-0.354-2.331-0.568  c-0.776-0.208-1.559-0.436-2.308-0.722c-1.28-0.474-2.148-1.54-3.312-2.066c-1.022-1.441-2.128-2.815-3.424-4.013  c-1.624-1.39-3.237-2.33-5.052-2.756c-1.803-0.437-3.68-0.467-5.677-0.18c-0.925,0.145-0.977,1.591-0.056,1.462  c2.743-0.374,5.121,0.031,7.041,1.074c0.976,0.509,1.883,1.14,2.729,1.863c0.81,0.751,1.566,1.589,2.296,2.474  C199.769,58.593,201.918,62.989,205.283,66.533z M202.047,148.432c3.228,4.635,2.411,9.047,0.54,13.217  c-1.937,4.186-4.992,8.012-6.598,12.655c-0.347,0.901,1.105,1.415,1.419,0.469c0.491-1.46,1.147-2.804,1.899-4.092  c0.693-1.327,1.482-2.599,2.293-3.864c0.052-0.087,0.105-0.175,0.157-0.263c-0.002,0.345,0,0.68-0.005,0.982  c0.014,1.775,0.56,3.48,1.443,5.03c0.238,0.42,0.914,0.135,0.789-0.355c-0.409-1.57-0.765-3.142-0.891-4.722  c-0.129-1.331,0.368-2.6,0.349-3.852c0.85-1.565,1.6-3.178,2.074-4.899c1.144-4.104,0.199-7.574-2.159-10.915  C202.823,147.061,201.501,147.656,202.047,148.432z M220.366,95.844c-1.368-0.884-2.697-1.805-3.864-2.886  c-0.938-0.899-1.468-2.135-2.323-3.045c-0.071-0.282-0.138-0.566-0.21-0.847c-0.198-0.724-0.391-1.448-0.651-2.15  c-0.273-0.699-0.573-1.388-0.91-2.06c-0.483-0.948-0.999-1.792-1.623-2.52c-0.638-0.724-1.331-1.346-2.079-1.879  c-0.749-0.534-1.553-0.98-2.413-1.349c-0.878-0.362-1.832-0.642-2.828-0.863c-0.916-0.198-1.48,1.128-0.548,1.33  c2.743,0.623,4.665,1.91,6.192,3.54c0.712,0.83,1.302,1.755,1.817,2.739c0.522,0.983,0.953,2.029,1.267,3.13  c0.336,1.094,0.628,2.224,0.916,3.366c0.237,1.153,0.456,2.322,0.718,3.487l0.412,1.748c0.123,0.585,0.26,1.168,0.417,1.748  c0.304,1.162,0.722,2.308,1.193,3.444c0.354,0.899,1.746,0.303,1.381-0.611c-0.629-1.409-1.058-2.843-1.377-4.301  c-0.322-1.456-0.657-2.919-0.906-4.4c-0.016-0.1-0.042-0.198-0.059-0.298c0.224,0.255,0.45,0.505,0.659,0.726  c1.215,1.302,2.784,2.191,4.476,2.743C220.479,96.787,220.798,96.12,220.366,95.844z M98.885,12.529  c2.246-0.448,4.604-0.746,6.979-0.977c2.37-0.335,4.75-0.584,7.097-1.377c0.928-0.311,0.461-1.727-0.482-1.416  c-1.461,0.487-2.929,0.753-4.408,0.945c-1.478,0.245-2.969,0.381-4.467,0.495c-0.102,0.011-0.204,0.023-0.306,0.034  c0.277-0.206,0.544-0.41,0.788-0.588c1.408-1.079,2.44-2.542,3.144-4.181c0.191-0.442-0.443-0.811-0.758-0.416  c-1.007,1.272-2.047,2.502-3.231,3.554c-0.984,0.899-2.294,1.273-3.283,2.042c-1.763,0.261-3.503,0.631-5.162,1.297  c-1.992,0.719-3.518,1.909-4.725,3.276c-1.212,1.356-2.062,3.076-2.687,5.019c-0.283,0.891,0.986,1.581,1.275,0.676  c0.218-0.67,0.471-1.295,0.755-1.871c0.29-0.559,0.61-1.072,0.959-1.548c0.695-0.949,1.501-1.742,2.387-2.413  c0.881-0.691,1.868-1.138,2.895-1.565C96.686,13.118,97.76,12.736,98.885,12.529z M136.142,13.996  c4.571,0.647,9.081,2.581,13.977,2.864c0.967,0.073,1.049-1.429,0.066-1.508c-3.065-0.164-5.896-1.057-8.805-1.831  c-0.095-0.026-0.189-0.054-0.283-0.081c0.327-0.09,0.644-0.184,0.935-0.271c1.708-0.519,3.209-1.549,4.441-2.777  c0.336-0.337-0.117-0.928-0.55-0.684c-1.398,0.823-2.819,1.624-4.308,2.194c-0.7,0.272-1.427,0.324-2.146,0.391  c-0.57,0.071-1.133,0.146-1.664,0.316c-0.267-0.057-0.533-0.12-0.801-0.172c-1.472-0.294-2.954-0.52-4.464-0.475  c-1.064,0.013-2.056,0.128-2.98,0.34c-0.926,0.212-1.797,0.596-2.607,1.024c-1.626,0.898-3.023,2.068-4.312,3.701  c-0.587,0.743,0.354,1.809,0.948,1.084c1.771-2.114,3.795-3.375,5.923-3.951C131.633,13.636,133.891,13.591,136.142,13.996z   M182.339,36.547c0.894,0.394,1.504-0.965,0.598-1.371c-1.411-0.621-2.668-1.423-3.901-2.266c-1.254-0.816-2.444-1.725-3.626-2.652  c-0.078-0.056-0.155-0.111-0.233-0.167c0.336,0.031,0.664,0.056,0.962,0.083c1.766,0.154,3.511-0.23,5.134-0.965  c0.439-0.197,0.219-0.898-0.278-0.819c-1.601,0.262-3.19,0.461-4.779,0.447c-1.355,0.021-2.567-0.61-3.821-0.706  c-0.225-0.154-0.447-0.314-0.674-0.464c-1.263-0.811-2.61-1.487-3.994-2.054c-1.97-0.787-3.895-0.945-5.698-0.767  c-1.82,0.21-3.612,0.916-5.373,1.905c-0.807,0.462-0.339,1.838,0.482,1.369c4.926-2.801,9.225-1.548,13.219,0.677  C174.319,31.145,177.887,34.492,182.339,36.547z"
                    style="fill: rgb(127, 102, 83);"></path>
                <path fill="#F5921E" d="M219.305,97.385c-0.425-0.977-0.137-2.138,0.791-2.641c0.913-0.501,2.058-0.115,2.561,0.887  c0.497,1.002,0.077,2.226-0.847,2.69C220.875,98.789,219.751,98.357,219.305,97.385z"
                    style="fill: rgb(245, 146, 30);"></path>
                <g>
                    <path fill="#2DB3C9" d="M130.761,8.372c-0.52-0.379-1.2-0.369-1.706-0.034c0.163-0.585-0.038-1.234-0.557-1.613   c-0.431-0.312-0.97-0.36-1.432-0.181c0.031-0.494-0.18-0.991-0.609-1.304c-0.669-0.487-1.607-0.341-2.095,0.329   c-0.486,0.669-1.522,7.523-0.854,8.009c0.669,0.489,7.097-2.443,7.583-3.112C131.578,9.797,131.43,8.858,130.761,8.372z"
                        style="fill: rgb(45, 179, 201);"></path>
                    <path fill="#9EDFE5" d="M116.256,18.787c0.519,0.379,1.2,0.368,1.705,0.033c-0.163,0.586,0.038,1.235,0.559,1.614   c0.43,0.312,0.968,0.359,1.428,0.179c-0.029,0.495,0.183,0.993,0.613,1.306c0.668,0.487,1.606,0.34,2.094-0.329   c0.486-0.669,1.522-7.522,0.854-8.012c-0.668-0.485-7.095,2.445-7.582,3.115C115.439,17.362,115.586,18.299,116.256,18.787z"
                        style="fill: rgb(158, 223, 229);"></path>
                    <path fill="#307E8F" d="M128.715,20.832c0.38-0.521,0.369-1.2,0.035-1.706c0.584,0.163,1.233-0.038,1.613-0.558   c0.312-0.43,0.36-0.968,0.18-1.431c0.495,0.031,0.992-0.18,1.305-0.608c0.487-0.67,0.34-1.607-0.33-2.096   c-0.668-0.486-7.522-1.523-8.01-0.856c-0.486,0.669,2.445,7.097,3.114,7.584C127.291,21.649,128.228,21.501,128.715,20.832z"
                        style="fill: rgb(48, 126, 143);"></path>
                    <path fill="#00CECD" d="M118.301,6.327c-0.379,0.518-0.369,1.199-0.034,1.706c-0.585-0.164-1.233,0.037-1.613,0.558   c-0.312,0.429-0.36,0.968-0.18,1.429c-0.494-0.03-0.992,0.181-1.305,0.611c-0.488,0.669-0.34,1.606,0.329,2.095   c0.669,0.486,7.523,1.521,8.01,0.852c0.487-0.668-2.444-7.094-3.112-7.582C119.726,5.51,118.788,5.657,118.301,6.327z"
                        style="fill: rgb(0, 206, 205);"></path>
                    <path fill="#2DB3C9" d="M115.029,10.779c0,0.643,0.409,1.188,0.978,1.4c-0.568,0.213-0.978,0.756-0.978,1.398   c0,0.532,0.279,0.997,0.697,1.263c-0.418,0.267-0.697,0.73-0.697,1.262c0,0.828,0.671,1.499,1.5,1.499   c0.827,0,6.979-3.194,6.979-4.024c0-0.826-6.151-4.297-6.979-4.297C115.7,9.281,115.029,9.951,115.029,10.779z"
                        style="fill: rgb(45, 179, 201);"></path>
                    <path fill="#9EDFE5" d="M131.986,16.38c0-0.644-0.408-1.189-0.977-1.401c0.568-0.212,0.977-0.756,0.977-1.4   c0-0.53-0.278-0.995-0.697-1.261c0.419-0.266,0.697-0.729,0.697-1.262c0-0.827-0.671-1.498-1.499-1.498   c-0.827,0-6.979,3.194-6.979,4.021c0,0.829,6.152,4.299,6.979,4.299C131.315,17.877,131.986,17.207,131.986,16.38z"
                        style="fill: rgb(158, 223, 229);"></path>
                    <path fill="#307E8F" d="M126.309,5.102c-0.645,0-1.188,0.408-1.4,0.977c-0.213-0.568-0.757-0.977-1.4-0.977   c-0.531,0-0.996,0.278-1.261,0.696c-0.267-0.418-0.73-0.696-1.263-0.696c-0.827,0-1.498,0.67-1.498,1.499   c0,0.826,3.194,6.978,4.022,6.978c0.828,0,4.298-6.151,4.298-6.978C127.806,5.772,127.136,5.102,126.309,5.102z"
                        style="fill: rgb(48, 126, 143);"></path>
                    <path fill="#00CECD" d="M120.708,22.058c0.644,0,1.188-0.408,1.4-0.978c0.213,0.569,0.756,0.978,1.4,0.978   c0.532,0,0.997-0.279,1.262-0.697c0.267,0.418,0.73,0.697,1.263,0.697c0.827,0,1.497-0.672,1.497-1.499   c0-0.828-3.193-6.98-4.021-6.98c-0.827,0-4.297,6.152-4.297,6.98C119.211,21.386,119.881,22.058,120.708,22.058z"
                        style="fill: rgb(0, 206, 205);"></path>
                    <circle fill="#F5921E" cx="123.548" cy="13.58" r="1.42" style="fill: rgb(245, 146, 30);"></circle>
                </g>
                <g>
                    <path fill="#2DB3C9" d="M215.261,70.872c-0.52-0.379-1.2-0.369-1.706-0.034c0.163-0.585-0.038-1.234-0.557-1.613   c-0.431-0.312-0.97-0.36-1.432-0.181c0.031-0.494-0.18-0.991-0.609-1.304c-0.669-0.487-1.606-0.341-2.095,0.329   c-0.486,0.669-1.522,7.523-0.854,8.009c0.669,0.489,7.097-2.443,7.583-3.112C216.078,72.297,215.93,71.358,215.261,70.872z"
                        style="fill: rgb(45, 179, 201);"></path>
                    <path fill="#9EDFE5" d="M200.756,81.287c0.519,0.379,1.2,0.368,1.705,0.033c-0.163,0.586,0.038,1.235,0.559,1.614   c0.43,0.312,0.968,0.359,1.428,0.179c-0.029,0.495,0.183,0.993,0.613,1.306c0.668,0.487,1.606,0.34,2.094-0.329   c0.486-0.669,1.522-7.522,0.854-8.012c-0.668-0.485-7.095,2.445-7.582,3.115C199.939,79.862,200.086,80.799,200.756,81.287z"
                        style="fill: rgb(158, 223, 229);"></path>
                    <path fill="#307E8F" d="M213.215,83.332c0.38-0.521,0.369-1.2,0.035-1.706c0.584,0.163,1.233-0.038,1.613-0.558   c0.312-0.43,0.36-0.968,0.18-1.431c0.495,0.031,0.992-0.18,1.305-0.608c0.487-0.67,0.34-1.607-0.33-2.096   c-0.668-0.486-7.522-1.523-8.01-0.855c-0.486,0.669,2.445,7.097,3.114,7.584C211.791,84.148,212.728,84.001,213.215,83.332z"
                        style="fill: rgb(48, 126, 143);"></path>
                    <path fill="#00CECD" d="M202.801,68.827c-0.379,0.519-0.369,1.199-0.034,1.706c-0.585-0.164-1.233,0.037-1.613,0.558   c-0.312,0.429-0.36,0.968-0.18,1.429c-0.494-0.03-0.992,0.181-1.305,0.611c-0.488,0.669-0.34,1.606,0.329,2.095   c0.669,0.486,7.523,1.521,8.01,0.853c0.487-0.668-2.444-7.094-3.112-7.582C204.226,68.01,203.288,68.157,202.801,68.827z"
                        style="fill: rgb(0, 206, 205);"></path>
                    <path fill="#2DB3C9" d="M199.529,73.279c0,0.643,0.409,1.188,0.978,1.4c-0.568,0.213-0.978,0.756-0.978,1.398   c0,0.532,0.279,0.997,0.697,1.263c-0.418,0.267-0.697,0.73-0.697,1.262c0,0.828,0.671,1.499,1.5,1.499   c0.827,0,6.979-3.194,6.979-4.023c0-0.826-6.151-4.297-6.979-4.297C200.2,71.781,199.529,72.451,199.529,73.279z"
                        style="fill: rgb(45, 179, 201);"></path>
                    <path fill="#9EDFE5" d="M216.486,78.88c0-0.644-0.408-1.188-0.977-1.401c0.568-0.212,0.977-0.756,0.977-1.4   c0-0.53-0.278-0.995-0.697-1.261c0.419-0.266,0.697-0.729,0.697-1.262c0-0.827-0.671-1.498-1.499-1.498   c-0.827,0-6.979,3.194-6.979,4.021c0,0.829,6.152,4.299,6.979,4.299C215.815,80.377,216.486,79.707,216.486,78.88z"
                        style="fill: rgb(158, 223, 229);"></path>
                    <path fill="#307E8F" d="M210.809,67.602c-0.645,0-1.188,0.408-1.4,0.977c-0.213-0.568-0.757-0.977-1.4-0.977   c-0.531,0-0.996,0.278-1.261,0.696c-0.267-0.418-0.73-0.696-1.263-0.696c-0.827,0-1.498,0.67-1.498,1.499   c0,0.826,3.194,6.978,4.022,6.978c0.828,0,4.298-6.151,4.298-6.978C212.306,68.271,211.636,67.602,210.809,67.602z"
                        style="fill: rgb(48, 126, 143);"></path>
                    <path fill="#00CECD" d="M205.208,84.558c0.643,0,1.188-0.408,1.4-0.978c0.213,0.569,0.756,0.978,1.4,0.978   c0.532,0,0.997-0.279,1.262-0.697c0.267,0.418,0.73,0.697,1.263,0.697c0.827,0,1.497-0.672,1.497-1.499   c0-0.828-3.193-6.98-4.021-6.98c-0.827,0-4.297,6.152-4.297,6.98C203.711,83.886,204.381,84.558,205.208,84.558z"
                        style="fill: rgb(0, 206, 205);"></path>
                    <circle fill="#F5921E" cx="208.048" cy="76.08" r="1.42" style="fill: rgb(245, 146, 30);"></circle>
                </g>
                <g>
                    <path fill="#2DB3C9" d="M34.762,55.452c-0.52-0.379-1.2-0.369-1.706-0.034c0.163-0.585-0.038-1.234-0.557-1.613   c-0.431-0.312-0.97-0.36-1.432-0.181c0.031-0.494-0.18-0.991-0.609-1.304c-0.669-0.487-1.607-0.341-2.095,0.329   c-0.486,0.669-1.522,7.524-0.854,8.009c0.669,0.489,7.097-2.443,7.583-3.112C35.579,56.877,35.431,55.938,34.762,55.452z"
                        style="fill: rgb(45, 179, 201);"></path>
                    <path fill="#9EDFE5" d="M20.257,65.867c0.519,0.379,1.2,0.368,1.705,0.033c-0.163,0.586,0.038,1.235,0.559,1.614   c0.43,0.312,0.968,0.359,1.428,0.179c-0.029,0.495,0.183,0.993,0.613,1.306c0.668,0.487,1.606,0.34,2.094-0.329   c0.486-0.669,1.522-7.522,0.853-8.012c-0.668-0.485-7.095,2.445-7.582,3.115C19.441,64.442,19.587,65.379,20.257,65.867z"
                        style="fill: rgb(158, 223, 229);"></path>
                    <path fill="#307E8F" d="M32.716,67.912c0.38-0.521,0.369-1.2,0.035-1.706c0.584,0.163,1.233-0.038,1.613-0.558   c0.312-0.43,0.36-0.968,0.18-1.431c0.495,0.031,0.992-0.18,1.305-0.608c0.487-0.67,0.34-1.607-0.33-2.096   c-0.668-0.486-7.523-1.523-8.01-0.855c-0.486,0.669,2.445,7.097,3.114,7.584C31.292,68.729,32.229,68.581,32.716,67.912z"
                        style="fill: rgb(48, 126, 143);"></path>
                    <path fill="#00CECD" d="M22.302,53.407c-0.379,0.519-0.369,1.199-0.034,1.706c-0.585-0.164-1.233,0.037-1.613,0.558   c-0.312,0.429-0.36,0.968-0.18,1.429c-0.494-0.03-0.992,0.181-1.305,0.611c-0.488,0.669-0.34,1.606,0.329,2.095   c0.669,0.486,7.523,1.522,8.01,0.853c0.487-0.668-2.444-7.094-3.112-7.582C23.727,52.59,22.789,52.737,22.302,53.407z"
                        style="fill: rgb(0, 206, 205);"></path>
                    <path fill="#2DB3C9" d="M19.03,57.859c0,0.643,0.409,1.188,0.978,1.4c-0.568,0.213-0.978,0.756-0.978,1.398   c0,0.532,0.279,0.997,0.697,1.263c-0.418,0.267-0.697,0.731-0.697,1.262c0,0.828,0.671,1.499,1.5,1.499   c0.827,0,6.978-3.194,6.978-4.024c0-0.826-6.151-4.297-6.978-4.297C19.701,56.361,19.03,57.031,19.03,57.859z"
                        style="fill: rgb(45, 179, 201);"></path>
                    <path fill="#9EDFE5" d="M35.987,63.46c0-0.644-0.408-1.188-0.977-1.401c0.568-0.212,0.977-0.756,0.977-1.4   c0-0.53-0.278-0.995-0.697-1.261c0.419-0.266,0.697-0.729,0.697-1.262c0-0.827-0.671-1.498-1.499-1.498   c-0.827,0-6.98,3.194-6.98,4.021c0,0.829,6.152,4.299,6.98,4.299C35.316,64.957,35.987,64.287,35.987,63.46z"
                        style="fill: rgb(158, 223, 229);"></path>
                    <path fill="#307E8F" d="M30.31,52.182c-0.644,0-1.188,0.408-1.4,0.976c-0.213-0.568-0.757-0.976-1.4-0.976   c-0.531,0-0.996,0.278-1.261,0.696c-0.267-0.418-0.731-0.696-1.263-0.696c-0.827,0-1.498,0.67-1.498,1.499   c0,0.826,3.194,6.978,4.021,6.978c0.828,0,4.298-6.151,4.298-6.978C31.807,52.852,31.137,52.182,30.31,52.182z"
                        style="fill: rgb(48, 126, 143);"></path>
                    <path fill="#00CECD" d="M24.709,69.138c0.644,0,1.188-0.408,1.4-0.978c0.213,0.569,0.756,0.978,1.399,0.978   c0.532,0,0.997-0.279,1.262-0.697c0.267,0.418,0.73,0.697,1.263,0.697c0.827,0,1.497-0.672,1.497-1.499   c0-0.828-3.193-6.981-4.022-6.981c-0.827,0-4.297,6.152-4.297,6.981C23.212,68.466,23.882,69.138,24.709,69.138z"
                        style="fill: rgb(0, 206, 205);"></path>
                    <circle fill="#F5921E" cx="27.549" cy="60.66" r="1.42" style="fill: rgb(245, 146, 30);"></circle>
                </g>
                <g>
                    <path fill="#2DB3C9" d="M22.762,128.952c-0.52-0.379-1.2-0.369-1.706-0.034c0.163-0.585-0.038-1.234-0.557-1.613   c-0.431-0.312-0.97-0.36-1.432-0.181c0.031-0.494-0.18-0.991-0.609-1.304c-0.669-0.487-1.607-0.341-2.095,0.329   c-0.486,0.669-1.522,7.523-0.855,8.009c0.669,0.489,7.097-2.443,7.583-3.112C23.579,130.377,23.431,129.439,22.762,128.952z"
                        style="fill: rgb(45, 179, 201);"></path>
                    <path fill="#9EDFE5" d="M8.257,139.367c0.519,0.379,1.2,0.368,1.705,0.033c-0.163,0.586,0.038,1.235,0.559,1.614   c0.43,0.312,0.968,0.359,1.428,0.179c-0.029,0.495,0.183,0.993,0.613,1.306c0.668,0.487,1.606,0.34,2.094-0.329   c0.486-0.669,1.523-7.522,0.854-8.012c-0.668-0.485-7.095,2.445-7.582,3.115C7.44,137.942,7.587,138.879,8.257,139.367z"
                        style="fill: rgb(158, 223, 229);"></path>
                    <path fill="#307E8F" d="M20.716,141.412c0.38-0.52,0.369-1.2,0.035-1.706c0.584,0.163,1.233-0.038,1.613-0.558   c0.312-0.43,0.36-0.968,0.18-1.431c0.495,0.031,0.992-0.18,1.305-0.608c0.487-0.67,0.34-1.607-0.33-2.096   c-0.668-0.486-7.522-1.523-8.01-0.855c-0.486,0.669,2.445,7.097,3.114,7.584C19.292,142.229,20.229,142.081,20.716,141.412z"
                        style="fill: rgb(48, 126, 143);"></path>
                    <path fill="#00CECD" d="M10.302,126.907c-0.379,0.519-0.369,1.199-0.034,1.706c-0.585-0.164-1.233,0.037-1.613,0.558   c-0.312,0.429-0.36,0.968-0.18,1.429c-0.494-0.03-0.992,0.181-1.305,0.611c-0.488,0.669-0.34,1.606,0.329,2.095   c0.669,0.486,7.523,1.521,8.01,0.853c0.487-0.668-2.444-7.094-3.112-7.582C11.727,126.09,10.789,126.237,10.302,126.907z"
                        style="fill: rgb(0, 206, 205);"></path>
                    <path fill="#2DB3C9" d="M7.03,131.359c0,0.643,0.409,1.188,0.978,1.4c-0.568,0.213-0.978,0.756-0.978,1.398   c0,0.532,0.279,0.997,0.697,1.263c-0.418,0.267-0.697,0.73-0.697,1.262c0,0.828,0.671,1.499,1.5,1.499   c0.827,0,6.978-3.194,6.978-4.023c0-0.826-6.151-4.297-6.978-4.297C7.701,129.861,7.03,130.531,7.03,131.359z"
                        style="fill: rgb(45, 179, 201);"></path>
                    <path fill="#9EDFE5" d="M23.987,136.96c0-0.644-0.408-1.189-0.977-1.401c0.568-0.212,0.977-0.756,0.977-1.4   c0-0.53-0.278-0.995-0.697-1.261c0.419-0.266,0.697-0.73,0.697-1.262c0-0.827-0.671-1.498-1.499-1.498   c-0.827,0-6.98,3.194-6.98,4.021c0,0.829,6.152,4.299,6.98,4.299C23.316,138.457,23.987,137.787,23.987,136.96z"
                        style="fill: rgb(158, 223, 229);"></path>
                    <path fill="#307E8F" d="M18.31,125.682c-0.644,0-1.188,0.408-1.4,0.977c-0.213-0.568-0.757-0.977-1.4-0.977   c-0.531,0-0.996,0.278-1.261,0.696c-0.267-0.418-0.73-0.696-1.263-0.696c-0.827,0-1.498,0.67-1.498,1.499   c0,0.826,3.194,6.978,4.021,6.978c0.828,0,4.298-6.151,4.298-6.978C19.807,126.352,19.137,125.682,18.31,125.682z"
                        style="fill: rgb(48, 126, 143);"></path>
                    <path fill="#00CECD" d="M12.709,142.638c0.644,0,1.188-0.408,1.4-0.977c0.213,0.569,0.756,0.977,1.399,0.977   c0.532,0,0.997-0.279,1.262-0.697c0.267,0.418,0.73,0.697,1.263,0.697c0.827,0,1.497-0.672,1.497-1.499   c0-0.828-3.193-6.98-4.022-6.98c-0.827,0-4.297,6.152-4.297,6.98C11.212,141.966,11.882,142.638,12.709,142.638z"
                        style="fill: rgb(0, 206, 205);"></path>
                    <circle fill="#F5921E" cx="15.549" cy="134.16" r="1.42" style="fill: rgb(245, 146, 30);"></circle>
                </g>
                <g>
                    <path fill="#2DB3C9" d="M94.261,204.372c-0.52-0.379-1.2-0.369-1.706-0.034c0.163-0.585-0.038-1.234-0.557-1.613   c-0.431-0.312-0.97-0.36-1.432-0.181c0.031-0.494-0.18-0.991-0.609-1.304c-0.669-0.487-1.606-0.341-2.095,0.329   c-0.486,0.669-1.522,7.523-0.854,8.009c0.669,0.489,7.097-2.443,7.583-3.112C95.078,205.797,94.93,204.858,94.261,204.372z"
                        style="fill: rgb(45, 179, 201);"></path>
                    <path fill="#9EDFE5" d="M79.756,214.787c0.519,0.379,1.2,0.368,1.705,0.033c-0.163,0.586,0.038,1.235,0.559,1.614   c0.43,0.312,0.968,0.359,1.428,0.179c-0.029,0.495,0.183,0.993,0.613,1.306c0.668,0.487,1.606,0.34,2.094-0.329   c0.486-0.669,1.522-7.523,0.854-8.012c-0.668-0.485-7.095,2.445-7.582,3.115C78.939,213.362,79.086,214.299,79.756,214.787z"
                        style="fill: rgb(158, 223, 229);"></path>
                    <path fill="#307E8F" d="M92.215,216.832c0.38-0.521,0.369-1.2,0.035-1.706c0.584,0.163,1.233-0.038,1.613-0.558   c0.312-0.43,0.36-0.968,0.18-1.431c0.495,0.031,0.992-0.18,1.305-0.608c0.487-0.67,0.34-1.607-0.33-2.096   c-0.668-0.486-7.522-1.523-8.01-0.855c-0.486,0.669,2.445,7.097,3.114,7.584C90.791,217.648,91.728,217.501,92.215,216.832z"
                        style="fill: rgb(48, 126, 143);"></path>
                    <path fill="#00CECD" d="M81.801,202.327c-0.379,0.519-0.369,1.199-0.034,1.706c-0.585-0.164-1.233,0.037-1.613,0.558   c-0.312,0.429-0.36,0.968-0.18,1.429c-0.494-0.03-0.992,0.181-1.305,0.611c-0.488,0.669-0.34,1.606,0.329,2.095   c0.669,0.486,7.523,1.521,8.01,0.852c0.487-0.668-2.444-7.094-3.112-7.582C83.226,201.51,82.288,201.657,81.801,202.327z"
                        style="fill: rgb(0, 206, 205);"></path>
                    <path fill="#2DB3C9" d="M78.529,206.779c0,0.643,0.409,1.188,0.978,1.4c-0.568,0.213-0.978,0.756-0.978,1.398   c0,0.532,0.279,0.997,0.697,1.263c-0.418,0.267-0.697,0.73-0.697,1.262c0,0.828,0.671,1.499,1.5,1.499   c0.827,0,6.979-3.194,6.979-4.023c0-0.826-6.151-4.297-6.979-4.297C79.2,205.281,78.529,205.951,78.529,206.779z"
                        style="fill: rgb(45, 179, 201);"></path>
                    <path fill="#9EDFE5" d="M95.486,212.38c0-0.643-0.408-1.188-0.977-1.401c0.568-0.212,0.977-0.756,0.977-1.4   c0-0.53-0.278-0.995-0.697-1.261c0.419-0.266,0.697-0.729,0.697-1.262c0-0.827-0.671-1.498-1.499-1.498   c-0.827,0-6.979,3.194-6.979,4.02c0,0.829,6.152,4.299,6.979,4.299C94.815,213.877,95.486,213.207,95.486,212.38z"
                        style="fill: rgb(158, 223, 229);"></path>
                    <path fill="#307E8F" d="M89.809,201.102c-0.645,0-1.188,0.408-1.4,0.977c-0.213-0.568-0.757-0.977-1.4-0.977   c-0.531,0-0.996,0.278-1.261,0.696c-0.267-0.418-0.73-0.696-1.263-0.696c-0.827,0-1.498,0.67-1.498,1.499   c0,0.826,3.194,6.977,4.022,6.977c0.828,0,4.298-6.151,4.298-6.977C91.306,201.771,90.636,201.102,89.809,201.102z"
                        style="fill: rgb(48, 126, 143);"></path>
                    <path fill="#00CECD" d="M84.208,218.058c0.644,0,1.188-0.408,1.4-0.978c0.213,0.569,0.756,0.978,1.4,0.978   c0.532,0,0.997-0.279,1.262-0.697c0.267,0.418,0.73,0.697,1.263,0.697c0.827,0,1.497-0.672,1.497-1.499   c0-0.828-3.193-6.98-4.021-6.98c-0.827,0-4.297,6.152-4.297,6.98C82.711,217.386,83.381,218.058,84.208,218.058z"
                        style="fill: rgb(0, 206, 205);"></path>
                    <circle fill="#F5921E" cx="87.048" cy="209.58" r="1.42" style="fill: rgb(245, 146, 30);"></circle>
                </g>
                <g>
                    <path fill="#2DB3C9" d="M167.261,196.872c-0.52-0.379-1.2-0.369-1.706-0.034c0.163-0.585-0.038-1.234-0.557-1.613   c-0.431-0.312-0.97-0.36-1.432-0.181c0.031-0.494-0.18-0.991-0.609-1.304c-0.669-0.487-1.606-0.341-2.095,0.329   c-0.486,0.669-1.522,7.523-0.854,8.009c0.669,0.489,7.097-2.443,7.583-3.112C168.078,198.297,167.93,197.358,167.261,196.872z"
                        style="fill: rgb(45, 179, 201);"></path>
                    <path fill="#9EDFE5" d="M152.756,207.287c0.519,0.379,1.2,0.368,1.705,0.033c-0.163,0.586,0.038,1.235,0.559,1.614   c0.43,0.312,0.968,0.359,1.428,0.179c-0.029,0.495,0.183,0.993,0.613,1.306c0.668,0.487,1.606,0.34,2.094-0.329   c0.486-0.669,1.522-7.523,0.854-8.012c-0.668-0.485-7.095,2.445-7.582,3.115C151.939,205.862,152.086,206.799,152.756,207.287z"
                        style="fill: rgb(158, 223, 229);"></path>
                    <path fill="#307E8F" d="M165.215,209.332c0.38-0.521,0.369-1.2,0.035-1.706c0.584,0.163,1.233-0.038,1.613-0.558   c0.312-0.43,0.36-0.968,0.18-1.431c0.495,0.031,0.992-0.18,1.305-0.608c0.487-0.67,0.34-1.607-0.33-2.096   c-0.668-0.486-7.522-1.523-8.01-0.855c-0.486,0.669,2.445,7.097,3.114,7.584C163.791,210.148,164.728,210.001,165.215,209.332z"
                        style="fill: rgb(48, 126, 143);"></path>
                    <path fill="#00CECD" d="M154.801,194.827c-0.379,0.519-0.369,1.199-0.034,1.706c-0.585-0.164-1.233,0.037-1.613,0.558   c-0.312,0.429-0.36,0.968-0.18,1.429c-0.494-0.03-0.992,0.181-1.305,0.611c-0.488,0.669-0.34,1.606,0.329,2.095   c0.669,0.486,7.523,1.521,8.01,0.852c0.487-0.668-2.444-7.094-3.112-7.582C156.226,194.01,155.288,194.157,154.801,194.827z"
                        style="fill: rgb(0, 206, 205);"></path>
                    <path fill="#2DB3C9" d="M151.529,199.279c0,0.643,0.409,1.188,0.978,1.4c-0.568,0.213-0.978,0.756-0.978,1.398   c0,0.532,0.279,0.997,0.697,1.263c-0.418,0.267-0.697,0.73-0.697,1.262c0,0.828,0.671,1.499,1.5,1.499   c0.827,0,6.979-3.194,6.979-4.023c0-0.826-6.151-4.297-6.979-4.297C152.2,197.781,151.529,198.451,151.529,199.279z"
                        style="fill: rgb(45, 179, 201);"></path>
                    <path fill="#9EDFE5" d="M168.486,204.88c0-0.643-0.408-1.188-0.977-1.401c0.568-0.212,0.977-0.756,0.977-1.4   c0-0.53-0.278-0.995-0.697-1.261c0.419-0.266,0.697-0.729,0.697-1.262c0-0.827-0.671-1.498-1.499-1.498   c-0.827,0-6.979,3.194-6.979,4.02c0,0.829,6.152,4.299,6.979,4.299C167.815,206.377,168.486,205.707,168.486,204.88z"
                        style="fill: rgb(158, 223, 229);"></path>
                    <path fill="#307E8F" d="M162.809,193.602c-0.645,0-1.188,0.408-1.4,0.977c-0.213-0.568-0.757-0.977-1.4-0.977   c-0.531,0-0.996,0.278-1.261,0.696c-0.267-0.418-0.73-0.696-1.263-0.696c-0.827,0-1.498,0.67-1.498,1.499   c0,0.826,3.194,6.977,4.022,6.977c0.828,0,4.298-6.151,4.298-6.977C164.306,194.271,163.636,193.602,162.809,193.602z"
                        style="fill: rgb(48, 126, 143);"></path>
                    <path fill="#00CECD" d="M157.208,210.558c0.643,0,1.188-0.408,1.4-0.978c0.213,0.569,0.756,0.978,1.4,0.978   c0.532,0,0.997-0.279,1.262-0.697c0.267,0.418,0.73,0.697,1.263,0.697c0.827,0,1.497-0.672,1.497-1.499   c0-0.828-3.193-6.98-4.021-6.98c-0.827,0-4.297,6.152-4.297,6.98C155.711,209.886,156.381,210.558,157.208,210.558z"
                        style="fill: rgb(0, 206, 205);"></path>
                    <circle fill="#F5921E" cx="160.048" cy="202.08" r="1.42" style="fill: rgb(245, 146, 30);"></circle>
                </g>
                <g>
                    <path fill="#DB2400" d="M51.808,35.123c-4.3-0.827-4.61-5.411-6.786-8.485c2.229-0.004,5.042,0.685,6.602,2.355   c1.269,1.356,1.119,3.009,1.873,4.623"
                        style="fill: rgb(219, 36, 0);"></path>
                    <path fill="#DB2400" d="M54.365,34.468c4.3,0.828,4.61,5.412,6.786,8.486c-2.228,0.004-5.042-0.685-6.602-2.354   c-1.269-1.356-1.118-3.009-1.871-4.623"
                        style="fill: rgb(219, 36, 0);"></path>
                    <path fill="#DB2400" d="M52.758,33.517c0.828-4.299,5.412-4.61,8.486-6.786c0.004,2.229-0.685,5.042-2.354,6.603   c-1.357,1.27-3.01,1.119-4.623,1.872"
                        style="fill: rgb(219, 36, 0);"></path>
                    <path fill="#DB2400" d="M53.414,36.075c-0.827,4.299-5.411,4.61-8.485,6.785c-0.004-2.229,0.685-5.042,2.354-6.602   c1.357-1.27,3.01-1.119,4.623-1.872"
                        style="fill: rgb(219, 36, 0);"></path>
                    <path fill="#FF3702" d="M52.285,35.846c-3.887,2.015-6.972-1.39-10.584-2.454c1.747-1.385,4.381-2.588,6.641-2.245   c1.837,0.28,2.742,1.669,4.334,2.469"
                        style="fill: rgb(255, 55, 2);"></path>
                    <path fill="#FF3702" d="M53.888,33.746c3.887-2.016,6.972,1.39,10.584,2.454c-1.747,1.385-4.381,2.588-6.641,2.245   c-1.837-0.28-2.742-1.669-4.334-2.469"
                        style="fill: rgb(255, 55, 2);"></path>
                    <path fill="#FF3702" d="M52.036,33.995c-2.015-3.888,1.391-6.972,2.455-10.585c1.385,1.747,2.588,4.382,2.244,6.641   c-0.279,1.837-1.668,2.743-2.469,4.334"
                        style="fill: rgb(255, 55, 2);"></path>
                    <path fill="#FF3702" d="M54.137,35.597c2.015,3.887-1.391,6.972-2.455,10.585c-1.384-1.748-2.588-4.382-2.244-6.642   c0.279-1.836,1.669-2.742,2.469-4.333"
                        style="fill: rgb(255, 55, 2);"></path>
                    <circle fill="#F5921E" cx="52.989" cy="34.779" r="1.455" style="fill: rgb(245, 146, 30);"></circle>
                </g>
                <g>
                    <path fill="#DB2400" d="M14.668,95.864c-4.3-0.827-4.61-5.411-6.786-8.485c2.228-0.004,5.042,0.685,6.601,2.354   c1.27,1.356,1.119,3.009,1.873,4.623"
                        style="fill: rgb(219, 36, 0);"></path>
                    <path fill="#DB2400" d="M17.226,95.209c4.3,0.828,4.61,5.412,6.786,8.486c-2.228,0.004-5.042-0.684-6.603-2.354   c-1.268-1.356-1.118-3.009-1.871-4.623"
                        style="fill: rgb(219, 36, 0);"></path>
                    <path fill="#DB2400" d="M15.618,94.258c0.828-4.299,5.412-4.61,8.486-6.786c0.004,2.229-0.684,5.042-2.354,6.603   c-1.357,1.27-3.01,1.119-4.623,1.872"
                        style="fill: rgb(219, 36, 0);"></path>
                    <path fill="#DB2400" d="M16.274,96.816c-0.827,4.299-5.411,4.61-8.485,6.785C7.785,101.373,8.474,98.56,10.143,97   c1.357-1.27,3.01-1.119,4.623-1.872"
                        style="fill: rgb(219, 36, 0);"></path>
                    <path fill="#FF3702" d="M15.146,96.587c-3.887,2.015-6.972-1.39-10.584-2.454c1.747-1.385,4.381-2.588,6.641-2.245   c1.837,0.28,2.742,1.669,4.334,2.469"
                        style="fill: rgb(255, 55, 2);"></path>
                    <path fill="#FF3702" d="M16.748,94.487c3.887-2.016,6.972,1.39,10.584,2.454c-1.747,1.385-4.381,2.588-6.641,2.245   c-1.837-0.28-2.742-1.669-4.334-2.469"
                        style="fill: rgb(255, 55, 2);"></path>
                    <path fill="#FF3702" d="M14.896,94.736c-2.015-3.888,1.391-6.972,2.455-10.585c1.385,1.747,2.588,4.382,2.244,6.641   c-0.279,1.837-1.668,2.743-2.469,4.334"
                        style="fill: rgb(255, 55, 2);"></path>
                    <path fill="#FF3702" d="M16.997,96.338c2.015,3.887-1.391,6.972-2.455,10.585c-1.384-1.748-2.588-4.382-2.244-6.642   c0.279-1.836,1.669-2.742,2.469-4.333"
                        style="fill: rgb(255, 55, 2);"></path>
                    <circle fill="#F5921E" cx="15.849" cy="95.521" r="1.455" style="fill: rgb(245, 146, 30);"></circle>
                </g>
                <g>
                    <path fill="#DB2400" d="M25.808,164.623c-4.3-0.827-4.61-5.411-6.786-8.485c2.229-0.004,5.042,0.685,6.602,2.355   c1.269,1.356,1.119,3.009,1.873,4.623"
                        style="fill: rgb(219, 36, 0);"></path>
                    <path fill="#DB2400" d="M28.365,163.968c4.3,0.828,4.61,5.412,6.786,8.486c-2.228,0.004-5.042-0.684-6.602-2.355   c-1.269-1.356-1.118-3.009-1.871-4.623"
                        style="fill: rgb(219, 36, 0);"></path>
                    <path fill="#DB2400" d="M26.758,163.017c0.828-4.299,5.412-4.61,8.486-6.786c0.004,2.229-0.685,5.042-2.354,6.602   c-1.357,1.27-3.01,1.119-4.623,1.872"
                        style="fill: rgb(219, 36, 0);"></path>
                    <path fill="#DB2400" d="M27.414,165.575c-0.827,4.299-5.411,4.61-8.485,6.785c-0.004-2.229,0.685-5.042,2.354-6.602   c1.357-1.27,3.01-1.119,4.623-1.872"
                        style="fill: rgb(219, 36, 0);"></path>
                    <path fill="#FF3702" d="M26.285,165.346c-3.887,2.015-6.972-1.39-10.584-2.454c1.747-1.385,4.381-2.588,6.641-2.245   c1.837,0.28,2.742,1.669,4.334,2.469"
                        style="fill: rgb(255, 55, 2);"></path>
                    <path fill="#FF3702" d="M27.888,163.246c3.887-2.016,6.972,1.39,10.584,2.454c-1.747,1.385-4.381,2.588-6.641,2.245   c-1.837-0.28-2.742-1.669-4.334-2.469"
                        style="fill: rgb(255, 55, 2);"></path>
                    <path fill="#FF3702" d="M26.036,163.495c-2.015-3.888,1.391-6.972,2.455-10.585c1.385,1.747,2.588,4.382,2.244,6.641   c-0.279,1.837-1.668,2.743-2.469,4.334"
                        style="fill: rgb(255, 55, 2);"></path>
                    <path fill="#FF3702" d="M28.137,165.097c2.015,3.887-1.391,6.972-2.455,10.585c-1.384-1.748-2.588-4.382-2.244-6.642   c0.279-1.836,1.669-2.742,2.469-4.333"
                        style="fill: rgb(255, 55, 2);"></path>
                    <circle fill="#F5921E" cx="26.989" cy="164.279" r="1.455" style="fill: rgb(245, 146, 30);"></circle>
                </g>
                <g>
                    <path fill="#DB2400" d="M123.065,213.483c-4.3-0.827-4.61-5.411-6.786-8.485c2.229-0.004,5.042,0.685,6.602,2.355   c1.269,1.356,1.119,3.009,1.873,4.623"
                        style="fill: rgb(219, 36, 0);"></path>
                    <path fill="#DB2400" d="M125.623,212.828c4.3,0.828,4.61,5.412,6.786,8.486c-2.229,0.004-5.042-0.685-6.603-2.354   c-1.269-1.357-1.118-3.009-1.871-4.623"
                        style="fill: rgb(219, 36, 0);"></path>
                    <path fill="#DB2400" d="M124.016,211.877c0.828-4.299,5.412-4.61,8.486-6.786c0.004,2.229-0.685,5.042-2.354,6.603   c-1.357,1.27-3.01,1.119-4.623,1.872"
                        style="fill: rgb(219, 36, 0);"></path>
                    <path fill="#DB2400" d="M124.672,214.436c-0.827,4.299-5.411,4.61-8.485,6.785c-0.004-2.229,0.684-5.042,2.354-6.602   c1.357-1.27,3.01-1.119,4.623-1.872"
                        style="fill: rgb(219, 36, 0);"></path>
                    <path fill="#FF3702" d="M123.543,214.206c-3.887,2.015-6.972-1.39-10.584-2.454c1.747-1.385,4.381-2.588,6.641-2.245   c1.837,0.28,2.742,1.669,4.334,2.469"
                        style="fill: rgb(255, 55, 2);"></path>
                    <path fill="#FF3702" d="M125.146,212.107c3.887-2.016,6.972,1.39,10.584,2.454c-1.747,1.385-4.381,2.588-6.641,2.245   c-1.837-0.28-2.742-1.669-4.334-2.469"
                        style="fill: rgb(255, 55, 2);"></path>
                    <path fill="#FF3702" d="M123.294,212.355c-2.015-3.888,1.391-6.972,2.455-10.585c1.385,1.747,2.588,4.382,2.244,6.641   c-0.279,1.837-1.668,2.743-2.469,4.334"
                        style="fill: rgb(255, 55, 2);"></path>
                    <path fill="#FF3702" d="M125.395,213.957c2.015,3.887-1.391,6.972-2.455,10.585c-1.384-1.748-2.588-4.382-2.244-6.642   c0.279-1.836,1.669-2.742,2.469-4.333"
                        style="fill: rgb(255, 55, 2);"></path>
                    <circle fill="#F5921E" cx="124.247" cy="213.14" r="1.455" style="fill: rgb(245, 146, 30);"></circle>
                </g>
                <g>
                    <path fill="#DB2400" d="M189.065,180.483c-4.3-0.827-4.61-5.411-6.786-8.485c2.229-0.004,5.042,0.685,6.602,2.355   c1.269,1.356,1.119,3.009,1.873,4.623"
                        style="fill: rgb(219, 36, 0);"></path>
                    <path fill="#DB2400" d="M191.623,179.828c4.3,0.828,4.61,5.412,6.786,8.486c-2.229,0.004-5.042-0.685-6.602-2.354   c-1.269-1.357-1.118-3.009-1.871-4.623"
                        style="fill: rgb(219, 36, 0);"></path>
                    <path fill="#DB2400" d="M190.016,178.877c0.828-4.299,5.412-4.61,8.486-6.786c0.004,2.229-0.685,5.042-2.354,6.603   c-1.357,1.27-3.01,1.119-4.623,1.872"
                        style="fill: rgb(219, 36, 0);"></path>
                    <path fill="#DB2400" d="M190.672,181.436c-0.827,4.299-5.411,4.61-8.485,6.785c-0.004-2.229,0.684-5.042,2.354-6.602   c1.357-1.27,3.01-1.119,4.623-1.872"
                        style="fill: rgb(219, 36, 0);"></path>
                    <path fill="#FF3702" d="M189.543,181.206c-3.887,2.015-6.972-1.39-10.584-2.454c1.747-1.385,4.381-2.588,6.641-2.245   c1.837,0.28,2.742,1.669,4.334,2.469"
                        style="fill: rgb(255, 55, 2);"></path>
                    <path fill="#FF3702" d="M191.146,179.107c3.887-2.016,6.972,1.39,10.584,2.454c-1.747,1.385-4.381,2.588-6.641,2.245   c-1.837-0.28-2.742-1.669-4.334-2.469"
                        style="fill: rgb(255, 55, 2);"></path>
                    <path fill="#FF3702" d="M189.294,179.355c-2.015-3.888,1.391-6.972,2.455-10.585c1.385,1.747,2.588,4.382,2.244,6.641   c-0.279,1.837-1.668,2.743-2.469,4.334"
                        style="fill: rgb(255, 55, 2);"></path>
                    <path fill="#FF3702" d="M191.395,180.957c2.015,3.887-1.391,6.972-2.455,10.585c-1.384-1.748-2.588-4.382-2.244-6.642   c0.279-1.836,1.669-2.742,2.469-4.333"
                        style="fill: rgb(255, 55, 2);"></path>
                    <circle fill="#F5921E" cx="190.247" cy="180.14" r="1.455" style="fill: rgb(245, 146, 30);"></circle>
                </g>
                <g>
                    <path fill="#DB2400" d="M188.808,44.123c-4.3-0.827-4.61-5.411-6.786-8.485c2.229-0.004,5.042,0.685,6.602,2.354   c1.27,1.357,1.119,3.009,1.873,4.623"
                        style="fill: rgb(219, 36, 0);"></path>
                    <path fill="#DB2400" d="M191.365,43.468c4.3,0.828,4.61,5.412,6.786,8.486c-2.228,0.004-5.042-0.685-6.602-2.354   c-1.269-1.356-1.118-3.009-1.871-4.623"
                        style="fill: rgb(219, 36, 0);"></path>
                    <path fill="#DB2400" d="M189.758,42.517c0.828-4.299,5.412-4.61,8.486-6.786c0.004,2.229-0.685,5.042-2.354,6.603   c-1.357,1.27-3.01,1.119-4.623,1.872"
                        style="fill: rgb(219, 36, 0);"></path>
                    <path fill="#DB2400" d="M190.414,45.075c-0.827,4.299-5.411,4.61-8.485,6.785c-0.004-2.229,0.684-5.042,2.354-6.602   c1.357-1.27,3.01-1.119,4.623-1.872"
                        style="fill: rgb(219, 36, 0);"></path>
                    <path fill="#FF3702" d="M189.285,44.846c-3.887,2.015-6.972-1.39-10.584-2.454c1.747-1.385,4.381-2.588,6.641-2.245   c1.837,0.28,2.742,1.669,4.334,2.469"
                        style="fill: rgb(255, 55, 2);"></path>
                    <path fill="#FF3702" d="M190.888,42.746c3.887-2.016,6.972,1.39,10.584,2.454c-1.747,1.385-4.381,2.588-6.641,2.245   c-1.837-0.28-2.742-1.669-4.334-2.469"
                        style="fill: rgb(255, 55, 2);"></path>
                    <path fill="#FF3702" d="M189.036,42.995c-2.015-3.888,1.391-6.972,2.455-10.585c1.385,1.747,2.588,4.382,2.244,6.641   c-0.279,1.837-1.668,2.743-2.469,4.334"
                        style="fill: rgb(255, 55, 2);"></path>
                    <path fill="#FF3702" d="M191.137,44.597c2.015,3.887-1.391,6.972-2.455,10.585c-1.384-1.748-2.588-4.382-2.244-6.642   c0.279-1.836,1.669-2.742,2.469-4.333"
                        style="fill: rgb(255, 55, 2);"></path>
                    <circle fill="#F5921E" cx="189.989" cy="43.779" r="1.455" style="fill: rgb(245, 146, 30);"></circle>
                </g>
                <g>
                    <path fill="#DB2400" d="M214.308,109.123c-4.3-0.827-4.61-5.411-6.786-8.485c2.229-0.004,5.042,0.685,6.602,2.354   c1.27,1.356,1.119,3.009,1.873,4.623"
                        style="fill: rgb(219, 36, 0);"></path>
                    <path fill="#DB2400" d="M216.865,108.468c4.3,0.828,4.61,5.412,6.786,8.486c-2.228,0.004-5.042-0.685-6.602-2.354   c-1.269-1.356-1.118-3.009-1.871-4.623"
                        style="fill: rgb(219, 36, 0);"></path>
                    <path fill="#DB2400" d="M215.258,107.517c0.828-4.299,5.412-4.61,8.486-6.786c0.004,2.229-0.685,5.042-2.354,6.603   c-1.357,1.27-3.01,1.119-4.623,1.872"
                        style="fill: rgb(219, 36, 0);"></path>
                    <path fill="#DB2400" d="M215.914,110.075c-0.827,4.299-5.411,4.61-8.485,6.785c-0.004-2.229,0.685-5.042,2.354-6.602   c1.357-1.269,3.01-1.119,4.623-1.872"
                        style="fill: rgb(219, 36, 0);"></path>
                    <path fill="#FF3702" d="M214.785,109.846c-3.887,2.015-6.972-1.39-10.584-2.454c1.747-1.385,4.381-2.588,6.641-2.245   c1.837,0.28,2.742,1.669,4.334,2.469"
                        style="fill: rgb(255, 55, 2);"></path>
                    <path fill="#FF3702" d="M216.388,107.746c3.887-2.016,6.972,1.39,10.584,2.454c-1.747,1.385-4.381,2.588-6.641,2.245   c-1.837-0.28-2.742-1.669-4.334-2.469"
                        style="fill: rgb(255, 55, 2);"></path>
                    <path fill="#FF3702" d="M214.536,107.995c-2.015-3.888,1.391-6.972,2.455-10.585c1.385,1.747,2.588,4.382,2.244,6.641   c-0.279,1.837-1.668,2.743-2.469,4.334"
                        style="fill: rgb(255, 55, 2);"></path>
                    <path fill="#FF3702" d="M216.637,109.597c2.015,3.887-1.391,6.972-2.455,10.585c-1.384-1.748-2.588-4.382-2.244-6.642   c0.279-1.836,1.669-2.742,2.469-4.333"
                        style="fill: rgb(255, 55, 2);"></path>
                    <circle fill="#F5921E" cx="215.489" cy="108.779" r="1.455" style="fill: rgb(245, 146, 30);"></circle>
                </g>
                <g>
                    <path fill="#F5921E" d="M86.453,16.399c-0.796-1.558-4.607-9.37-0.859-10.102c3.181-0.619,2.525,5.539,2.378,7.155   c-0.087,1.008-0.188,2.001-0.455,2.98"
                        style="fill: rgb(245, 146, 30);"></path>
                    <path fill="#F5921E" d="M86.156,16.943c-1.666-0.54-9.887-3.371-7.751-6.529c1.812-2.691,5.703,2.127,6.74,3.376   c0.646,0.771,1.283,1.548,1.784,2.431"
                        style="fill: rgb(245, 146, 30);"></path>
                    <path fill="#F5921E" d="M86.332,17.542c-1.562,0.796-9.376,4.605-10.104,0.863c-0.62-3.189,5.541-2.527,7.152-2.383   c1.008,0.092,2.001,0.189,2.98,0.458"
                        style="fill: rgb(245, 146, 30);"></path>
                    <path fill="#F5921E" d="M86.872,17.841c-0.54,1.664-3.366,9.882-6.53,7.751c-2.69-1.814,2.13-5.706,3.374-6.743   c0.776-0.646,1.551-1.282,2.433-1.779"
                        style="fill: rgb(245, 146, 30);"></path>
                    <path fill="#F5921E" d="M87.471,17.662c0.798,1.562,4.61,9.376,0.865,10.104c-3.186,0.622-2.529-5.542-2.383-7.152   c0.09-1.008,0.19-2.002,0.459-2.98"
                        style="fill: rgb(245, 146, 30);"></path>
                    <path fill="#F5921E" d="M87.771,17.122c1.667,0.54,9.885,3.366,7.751,6.53c-1.812,2.691-5.703-2.127-6.74-3.371   c-0.651-0.776-1.283-1.553-1.784-2.436"
                        style="fill: rgb(245, 146, 30);"></path>
                    <path fill="#F5921E" d="M87.596,16.524c1.562-0.796,9.376-4.606,10.099-0.863c0.623,3.183-5.536,2.527-7.147,2.382   c-1.008-0.086-2.006-0.188-2.982-0.458"
                        style="fill: rgb(245, 146, 30);"></path>
                    <path fill="#F5921E" d="M87.051,16.226c0.543-1.664,3.371-9.888,6.535-7.751c2.688,1.814-2.132,5.701-3.376,6.738   c-0.771,0.65-1.551,1.282-2.431,1.789"
                        style="fill: rgb(245, 146, 30);"></path>
                    <path fill="#F1F3F3" d="M89.862,16.336c0.41,1.553-0.516,3.149-2.071,3.559c-1.556,0.41-3.146-0.517-3.557-2.074   c-0.412-1.553,0.516-3.145,2.068-3.554C87.858,13.853,89.452,14.783,89.862,16.336z"
                        style="fill: rgb(241, 243, 243);"></path>
                </g>
                <g>
                    <path fill="#F5921E" d="M159.453,21.899c-0.796-1.558-4.607-9.37-0.859-10.102c3.181-0.619,2.525,5.539,2.378,7.155   c-0.087,1.008-0.188,2.001-0.455,2.98"
                        style="fill: rgb(245, 146, 30);"></path>
                    <path fill="#F5921E" d="M159.156,22.443c-1.666-0.54-9.887-3.371-7.751-6.529c1.812-2.691,5.703,2.127,6.74,3.376   c0.646,0.771,1.283,1.548,1.784,2.431"
                        style="fill: rgb(245, 146, 30);"></path>
                    <path fill="#F5921E" d="M159.332,23.042c-1.562,0.796-9.376,4.605-10.104,0.863c-0.62-3.188,5.541-2.527,7.152-2.383   c1.008,0.092,2.001,0.189,2.98,0.458"
                        style="fill: rgb(245, 146, 30);"></path>
                    <path fill="#F5921E" d="M159.872,23.341c-0.54,1.664-3.366,9.882-6.53,7.751c-2.69-1.814,2.13-5.706,3.374-6.743   c0.776-0.646,1.551-1.282,2.433-1.779"
                        style="fill: rgb(245, 146, 30);"></path>
                    <path fill="#F5921E" d="M160.471,23.162c0.798,1.562,4.61,9.376,0.865,10.105c-3.186,0.622-2.529-5.542-2.383-7.152   c0.09-1.008,0.19-2.002,0.459-2.98"
                        style="fill: rgb(245, 146, 30);"></path>
                    <path fill="#F5921E" d="M160.771,22.622c1.667,0.54,9.885,3.366,7.751,6.53c-1.811,2.691-5.703-2.127-6.74-3.371   c-0.651-0.776-1.283-1.553-1.784-2.436"
                        style="fill: rgb(245, 146, 30);"></path>
                    <path fill="#F5921E" d="M160.596,22.024c1.562-0.796,9.376-4.606,10.099-0.863c0.623,3.183-5.536,2.527-7.147,2.382   c-1.008-0.086-2.006-0.188-2.982-0.458"
                        style="fill: rgb(245, 146, 30);"></path>
                    <path fill="#F5921E" d="M160.051,21.726c0.543-1.664,3.371-9.888,6.535-7.751c2.688,1.814-2.132,5.701-3.376,6.738   c-0.771,0.65-1.551,1.282-2.431,1.789"
                        style="fill: rgb(245, 146, 30);"></path>
                    <path fill="#F1F3F3" d="M162.862,21.836c0.41,1.553-0.516,3.149-2.071,3.559c-1.556,0.41-3.146-0.517-3.557-2.074   c-0.412-1.553,0.516-3.145,2.068-3.554C160.858,19.353,162.452,20.283,162.862,21.836z"
                        style="fill: rgb(241, 243, 243);"></path>
                </g>
                <g>
                    <path fill="#F5921E" d="M207.953,145.398c-0.796-1.558-4.607-9.37-0.859-10.102c3.181-0.619,2.525,5.539,2.378,7.155   c-0.087,1.008-0.188,2.001-0.455,2.98"
                        style="fill: rgb(245, 146, 30);"></path>
                    <path fill="#F5921E" d="M207.656,145.943c-1.666-0.54-9.887-3.371-7.751-6.529c1.812-2.691,5.703,2.127,6.74,3.376   c0.646,0.771,1.283,1.548,1.784,2.431"
                        style="fill: rgb(245, 146, 30);"></path>
                    <path fill="#F5921E" d="M207.832,146.542c-1.562,0.796-9.376,4.605-10.104,0.863c-0.62-3.189,5.541-2.527,7.152-2.383   c1.008,0.092,2.001,0.188,2.98,0.458"
                        style="fill: rgb(245, 146, 30);"></path>
                    <path fill="#F5921E" d="M208.372,146.841c-0.54,1.664-3.366,9.882-6.53,7.751c-2.69-1.813,2.13-5.706,3.374-6.743   c0.776-0.646,1.551-1.282,2.433-1.779"
                        style="fill: rgb(245, 146, 30);"></path>
                    <path fill="#F5921E" d="M208.971,146.662c0.798,1.562,4.61,9.376,0.865,10.105c-3.186,0.622-2.529-5.542-2.383-7.152   c0.09-1.008,0.19-2.002,0.459-2.98"
                        style="fill: rgb(245, 146, 30);"></path>
                    <path fill="#F5921E" d="M209.271,146.122c1.667,0.54,9.885,3.366,7.751,6.53c-1.811,2.691-5.703-2.127-6.74-3.371   c-0.651-0.776-1.283-1.553-1.784-2.436"
                        style="fill: rgb(245, 146, 30);"></path>
                    <path fill="#F5921E" d="M209.096,145.524c1.562-0.796,9.376-4.606,10.099-0.863c0.623,3.183-5.536,2.527-7.147,2.382   c-1.008-0.086-2.006-0.188-2.982-0.458"
                        style="fill: rgb(245, 146, 30);"></path>
                    <path fill="#F5921E" d="M208.551,145.226c0.543-1.664,3.371-9.888,6.535-7.751c2.688,1.814-2.132,5.701-3.376,6.738   c-0.771,0.65-1.551,1.282-2.431,1.789"
                        style="fill: rgb(245, 146, 30);"></path>
                    <path fill="#F1F3F3" d="M211.362,145.336c0.41,1.553-0.516,3.149-2.071,3.559c-1.556,0.41-3.146-0.517-3.557-2.074   c-0.412-1.553,0.516-3.145,2.068-3.554C209.358,142.853,210.952,143.783,211.362,145.336z"
                        style="fill: rgb(241, 243, 243);"></path>
                </g>
                <g>
                    <path fill="#F5921E" d="M53.953,193.398c-0.796-1.558-4.606-9.37-0.859-10.102c3.181-0.619,2.525,5.539,2.378,7.155   c-0.087,1.008-0.188,2.001-0.455,2.98"
                        style="fill: rgb(245, 146, 30);"></path>
                    <path fill="#F5921E" d="M53.656,193.943c-1.666-0.54-9.887-3.371-7.751-6.529c1.812-2.691,5.703,2.127,6.74,3.376   c0.646,0.771,1.283,1.548,1.784,2.431"
                        style="fill: rgb(245, 146, 30);"></path>
                    <path fill="#F5921E" d="M53.832,194.542c-1.562,0.796-9.376,4.605-10.104,0.863c-0.62-3.189,5.541-2.527,7.152-2.383   c1.008,0.092,2.001,0.188,2.98,0.458"
                        style="fill: rgb(245, 146, 30);"></path>
                    <path fill="#F5921E" d="M54.372,194.841c-0.54,1.664-3.366,9.882-6.53,7.751c-2.69-1.813,2.13-5.706,3.374-6.743   c0.776-0.646,1.551-1.282,2.433-1.779"
                        style="fill: rgb(245, 146, 30);"></path>
                    <path fill="#F5921E" d="M54.971,194.662c0.798,1.562,4.61,9.376,0.865,10.105c-3.186,0.622-2.529-5.542-2.383-7.152   c0.09-1.008,0.19-2.002,0.459-2.98"
                        style="fill: rgb(245, 146, 30);"></path>
                    <path fill="#F5921E" d="M55.271,194.122c1.667,0.54,9.885,3.366,7.751,6.53c-1.812,2.691-5.703-2.127-6.74-3.371   c-0.651-0.776-1.283-1.553-1.784-2.436"
                        style="fill: rgb(245, 146, 30);"></path>
                    <path fill="#F5921E" d="M55.096,193.524c1.562-0.796,9.376-4.606,10.099-0.863c0.623,3.183-5.536,2.527-7.147,2.382   c-1.008-0.086-2.006-0.188-2.982-0.458"
                        style="fill: rgb(245, 146, 30);"></path>
                    <path fill="#F5921E" d="M54.551,193.226c0.543-1.664,3.371-9.888,6.535-7.751c2.688,1.814-2.132,5.701-3.376,6.738   c-0.771,0.65-1.551,1.282-2.431,1.789"
                        style="fill: rgb(245, 146, 30);"></path>
                    <path fill="#F1F3F3" d="M57.362,193.336c0.41,1.553-0.516,3.149-2.071,3.559c-1.556,0.41-3.146-0.517-3.557-2.074   c-0.412-1.553,0.516-3.145,2.068-3.554C55.358,190.853,56.952,191.783,57.362,193.336z"
                        style="fill: rgb(241, 243, 243);"></path>
                </g>
            </svg>